ISO-10303-21;
HEADER;
/* Generated by software containing ST-Developer
 * from STEP Tools, Inc. (www.steptools.com) 
 */
/* OPTION: using custom renumber hook */

FILE_DESCRIPTION(
/* description */ ('STEP AP242 Edition 2',
'CAx-IF Rec.Pracs.---Representation and Presentation of Product Manufa
cturing Information (PMI)---4.0---2014-10-13',
'CAx-IF Rec.Pracs.---3D Tessellated Geometry---0.4---2014-09-14','2;1',
'CAx-IF Rec.Pracs.---User Defined Attributes---1.5---2016-08-15'),
/* implementation_level */ '2;1');

FILE_NAME(
/* name */ 'Part Studio 1 - Part 2',
/* time_stamp */ '2026-08-30T20:50:23Z',
/* author */ (''),
/* organization */ (''),
/* preprocessor_version */ 'ST-DEVELOPER v20',
/* originating_system */ 'ONSHAPE BY PTC INC, 1.220',
/* authorisation */ '  ');

FILE_SCHEMA (('AP242_MANAGED_MODEL_BASED_3D_ENGINEERING_MIM_LF { 1 0 10303 442 3 1 4 }'));
ENDSEC;

DATA;
#10=SHAPE_REPRESENTATION_RELATIONSHIP('','',#319,#11);
#11=ADVANCED_BREP_SHAPE_REPRESENTATION('',(#317),#1043);
#12=PLANE('',#321);
#13=PLANE('',#322);
#14=PLANE('',#323);
#15=PLANE('',#324);
#16=PLANE('',#325);
#17=PLANE('',#326);
#18=PLANE('',#327);
#19=PLANE('',#328);
#20=PLANE('',#329);
#21=B_SPLINE_CURVE_WITH_KNOTS('',3,(#392,#393,#394,#395,#396,#397),
 .UNSPECIFIED.,.F.,.F.,(4,1,1,4),(0.,0.288916775171177,0.640254616403116,
1.),.UNSPECIFIED.);
#22=B_SPLINE_CURVE_WITH_KNOTS('',3,(#401,#402,#403,#404,#405,#406),
 .UNSPECIFIED.,.F.,.F.,(4,1,1,4),(0.,0.288916775171177,0.640254616403116,
1.),.UNSPECIFIED.);
#23=B_SPLINE_CURVE_WITH_KNOTS('',3,(#430,#431,#432,#433,#434,#435,#436,
#437,#438,#439),.UNSPECIFIED.,.F.,.F.,(4,1,1,1,1,1,1,4),(0.,0.195058430614277,
0.374320054929637,0.430744131952276,0.605870595630119,0.761635711533119,
0.897524479960847,1.),.UNSPECIFIED.);
#24=B_SPLINE_CURVE_WITH_KNOTS('',3,(#440,#441,#442,#443,#444,#445,#446,
#447,#448,#449),.UNSPECIFIED.,.F.,.F.,(4,1,1,1,1,1,1,4),(0.,0.195058430614277,
0.374320054929637,0.430744131952276,0.605870595630119,0.761635711533119,
0.897524479960847,1.),.UNSPECIFIED.);
#25=B_SPLINE_CURVE_WITH_KNOTS('',3,(#482,#483,#484,#485,#486,#487,#488,
#489,#490,#491,#492,#493,#494,#495,#496,#497,#498,#499,#500,#501,#502,#503),
 .UNSPECIFIED.,.F.,.F.,(4,1,1,1,1,1,1,1,1,1,1,1,1,1,1,1,1,1,1,4),(-0.0138895035056809,
0.0171137488650717,0.0481170012358244,0.11012350597733,0.172130010718835,
0.23413651546034,0.265139767831093,0.296143020201846,0.327146272572599,
0.358149524943352,0.420156029684856,0.482162534426362,0.544169039167867,
0.606175543909373,0.637178796280125,0.668182048650878,0.730188553392383,
0.792195058133889,0.854201562875394,0.978214572358405),.UNSPECIFIED.);
#26=B_SPLINE_CURVE_WITH_KNOTS('',3,(#508,#509,#510,#511,#512,#513,#514,
#515,#516,#517,#518,#519,#520,#521,#522,#523,#524,#525,#526,#527,#528,#529),
 .UNSPECIFIED.,.F.,.F.,(4,1,1,1,1,1,1,1,1,1,1,1,1,1,1,1,1,1,1,4),(-0.0138895035056809,
0.0171137488650717,0.0481170012358244,0.11012350597733,0.172130010718835,
0.23413651546034,0.265139767831093,0.296143020201846,0.327146272572599,
0.358149524943352,0.420156029684856,0.482162534426362,0.544169039167867,
0.606175543909373,0.637178796280125,0.668182048650878,0.730188553392383,
0.792195058133889,0.854201562875394,0.978214572358405),.UNSPECIFIED.);
#27=B_SPLINE_CURVE_WITH_KNOTS('',3,(#564,#565,#566,#567,#568,#569,#570,
#571,#572,#573,#574,#575,#576,#577,#578,#579,#580),.UNSPECIFIED.,.F.,.F.,
(4,1,1,1,1,1,1,1,1,1,1,1,1,1,4),(-0.0259652475580958,-0.00337818324371654,
0.0192088810706626,0.064383009699421,0.109557138328179,0.132144202642559,
0.154731266956938,0.177318331271317,0.188611863428506,0.199905395585696,
0.222492459900075,0.245079524214455,0.290253652843213,0.312840717157592,
0.335427781471971),.UNSPECIFIED.);
#28=B_SPLINE_CURVE_WITH_KNOTS('',3,(#582,#583,#584,#585,#586,#587,#588,
#589,#590,#591,#592,#593,#594,#595,#596,#597,#598),.UNSPECIFIED.,.F.,.F.,
(4,1,1,1,1,1,1,1,1,1,1,1,1,1,4),(-0.0259652475580958,-0.00337818324371654,
0.0192088810706626,0.064383009699421,0.109557138328179,0.132144202642559,
0.154731266956938,0.177318331271317,0.188611863428506,0.199905395585696,
0.222492459900075,0.245079524214455,0.290253652843213,0.312840717157592,
0.335427781471971),.UNSPECIFIED.);
#29=B_SPLINE_CURVE_WITH_KNOTS('',3,(#647,#648,#649,#650,#651,#652,#653,
#654,#655,#656,#657,#658,#659,#660,#661,#662,#663,#664,#665,#666,#667,#668,
#669,#670,#671,#672,#673,#674,#675,#676,#677,#678,#679,#680,#681,#682,#683,
#684),.UNSPECIFIED.,.F.,.F.,(4,1,1,1,1,1,1,1,1,1,1,1,1,1,1,1,1,1,1,1,1,
1,1,1,1,1,1,1,1,1,1,1,1,1,1,4),(0.425414072997648,0.42997972884444,0.432262556767835,
0.43454538469123,0.439111040538022,0.443676696384812,0.452808008078394,
0.461939319771976,0.471070631465558,0.48020194315914,0.498464566546304,
0.516727189933468,0.534989813320632,0.553252436707796,0.571515060094961,
0.608040306869289,0.644565553643617,0.681090800417945,0.717616047192273,
0.735878670579437,0.754141293966601,0.772403917353765,0.790666540740929,
0.827191787515257,0.845454410902421,0.863717034289586,0.88197965767675,
0.891110969370332,0.900242281063914,0.909373592757496,0.918504904451078,
0.936767527838242,0.955030151225406,0.97329277461257,0.991555397999734,
1.0098180213869),.UNSPECIFIED.);
#30=B_SPLINE_CURVE_WITH_KNOTS('',3,(#685,#686,#687,#688,#689,#690,#691,
#692,#693,#694,#695,#696,#697,#698,#699,#700,#701,#702,#703,#704,#705,#706,
#707,#708,#709,#710,#711,#712,#713,#714,#715,#716,#717,#718,#719,#720,#721,
#722),.UNSPECIFIED.,.F.,.F.,(4,1,1,1,1,1,1,1,1,1,1,1,1,1,1,1,1,1,1,1,1,
1,1,1,1,1,1,1,1,1,1,1,1,1,1,4),(0.425414072997648,0.42997972884444,0.432262556767835,
0.43454538469123,0.439111040538022,0.443676696384812,0.452808008078394,
0.461939319771976,0.471070631465558,0.48020194315914,0.498464566546304,
0.516727189933468,0.534989813320632,0.553252436707796,0.571515060094961,
0.608040306869289,0.644565553643617,0.681090800417945,0.717616047192273,
0.735878670579437,0.754141293966601,0.772403917353765,0.790666540740929,
0.827191787515257,0.845454410902421,0.863717034289586,0.88197965767675,
0.891110969370332,0.900242281063914,0.909373592757496,0.918504904451078,
0.936767527838242,0.955030151225406,0.97329277461257,0.991555397999734,
1.0098180213869),.UNSPECIFIED.);
#31=B_SPLINE_CURVE_WITH_KNOTS('',3,(#731,#732,#733,#734,#735,#736,#737,
#738,#739,#740,#741,#742,#743,#744,#745,#746,#747,#748,#749,#750,#751,#752,
#753,#754,#755,#756,#757,#758,#759),.UNSPECIFIED.,.F.,.F.,(4,1,1,1,1,1,
1,1,1,1,1,1,1,1,1,1,1,1,1,1,1,1,1,1,1,1,4),(-0.0486132622698847,-0.01816495935659,
0.0122833435567047,0.0427316464699994,0.0731799493832941,0.103628252296589,
0.134076555209884,0.194973161036473,0.225421463949767,0.255869766863063,
0.286318069776357,0.301542221233005,0.316766372689652,0.347214675602946,
0.377662978516241,0.43855958434283,0.49945619016942,0.56035279599601,0.590801098909304,
0.621249401822599,0.651697704735894,0.682146007649188,0.712594310562483,
0.743042613475778,0.803939219302367,0.864835825128957,0.925732430955546),
 .UNSPECIFIED.);
#32=B_SPLINE_CURVE_WITH_KNOTS('',3,(#761,#762,#763,#764,#765,#766,#767,
#768,#769,#770,#771,#772,#773,#774,#775,#776,#777,#778,#779,#780,#781,#782,
#783,#784,#785,#786,#787,#788,#789,#790,#791,#792,#793,#794,#795,#796,#797,
#798,#799,#800,#801,#802,#803),.UNSPECIFIED.,.F.,.F.,(4,1,1,1,1,1,1,1,1,
1,1,1,1,1,1,1,1,1,1,1,1,1,1,1,1,1,1,1,1,1,1,1,1,1,1,1,1,1,1,1,4),(0.45810893409305,
0.467112905042442,0.476116875991834,0.494124817890618,0.512132759789403,
0.530140701688187,0.566156585485755,0.584164527384539,0.602172469283324,
0.620180411182108,0.638188353080892,0.656196294979676,0.67420423687846,
0.692212178777244,0.710220120676029,0.746236004473597,0.764243946372381,
0.782251888271165,0.818267772068734,0.836275713967518,0.854283655866302,
0.872291597765086,0.881295568714478,0.89029953966387,0.899303510613263,
0.903805496087959,0.908307481562655,0.917311452512047,0.926315423461439,
0.944323365360223,0.962331307259007,0.971335278208399,0.980339249157791,
0.989343220107183,0.998347191056576,1.00284917653127,1.00735116200597,1.01185314748066,
1.01635513295536,1.02535910390475,1.03436307485414),.UNSPECIFIED.);
#33=B_SPLINE_CURVE_WITH_KNOTS('',3,(#805,#806,#807,#808,#809,#810,#811,
#812,#813,#814,#815,#816,#817,#818,#819,#820,#821,#822,#823,#824,#825,#826,
#827),.UNSPECIFIED.,.F.,.F.,(4,1,1,1,1,1,1,1,1,1,1,1,1,1,1,1,1,1,1,1,4),
(-0.0908783664533361,-0.0669797014473977,-0.0430810364414593,-0.0191823714355209,
-0.00723303893255166,0.00471629357041755,0.0286149585763559,0.0525136235822944,
0.100310953594171,0.12420961860011,0.148108283606048,0.160057616109017,
0.172006948611986,0.183956281114956,0.195905613617925,0.207854946120894,
0.219804278623863,0.231753611126832,0.243702943629801,0.26760160863574,
0.291500273641678),.UNSPECIFIED.);
#34=B_SPLINE_CURVE_WITH_KNOTS('',3,(#836,#837,#838,#839,#840,#841,#842,
#843,#844,#845,#846,#847,#848,#849,#850,#851,#852,#853,#854,#855,#856,#857,
#858),.UNSPECIFIED.,.F.,.F.,(4,1,1,1,1,1,1,1,1,1,1,1,1,1,1,1,1,1,1,1,4),
(-0.0908783664533361,-0.0669797014473977,-0.0430810364414593,-0.0191823714355209,
-0.00723303893255166,0.00471629357041755,0.0286149585763559,0.0525136235822944,
0.100310953594171,0.12420961860011,0.148108283606048,0.160057616109017,
0.172006948611986,0.183956281114956,0.195905613617925,0.207854946120894,
0.219804278623863,0.231753611126832,0.243702943629801,0.26760160863574,
0.291500273641678),.UNSPECIFIED.);
#35=B_SPLINE_CURVE_WITH_KNOTS('',3,(#860,#861,#862,#863,#864,#865,#866,
#867,#868,#869,#870,#871,#872,#873,#874,#875,#876,#877,#878,#879,#880,#881,
#882,#883,#884,#885,#886,#887,#888,#889,#890,#891,#892,#893,#894,#895,#896,
#897,#898,#899,#900,#901,#902),.UNSPECIFIED.,.F.,.F.,(4,1,1,1,1,1,1,1,1,
1,1,1,1,1,1,1,1,1,1,1,1,1,1,1,1,1,1,1,1,1,1,1,1,1,1,1,1,1,1,1,4),(0.45810893409305,
0.467112905042442,0.476116875991834,0.494124817890618,0.512132759789403,
0.530140701688187,0.566156585485755,0.584164527384539,0.602172469283324,
0.620180411182108,0.638188353080892,0.656196294979676,0.67420423687846,
0.692212178777244,0.710220120676029,0.746236004473597,0.764243946372381,
0.782251888271165,0.818267772068734,0.836275713967518,0.854283655866302,
0.872291597765086,0.881295568714478,0.89029953966387,0.899303510613263,
0.903805496087959,0.908307481562655,0.917311452512047,0.926315423461439,
0.944323365360223,0.962331307259007,0.971335278208399,0.980339249157791,
0.989343220107183,0.998347191056576,1.00284917653127,1.00735116200597,1.01185314748066,
1.01635513295536,1.02535910390475,1.03436307485414),.UNSPECIFIED.);
#36=B_SPLINE_CURVE_WITH_KNOTS('',3,(#904,#905,#906,#907,#908,#909,#910,
#911,#912,#913,#914,#915,#916,#917,#918,#919,#920,#921,#922,#923,#924,#925,
#926,#927,#928,#929,#930,#931,#932),.UNSPECIFIED.,.F.,.F.,(4,1,1,1,1,1,
1,1,1,1,1,1,1,1,1,1,1,1,1,1,1,1,1,1,1,1,4),(-0.0486132622698847,-0.01816495935659,
0.0122833435567047,0.0427316464699994,0.0731799493832941,0.103628252296589,
0.134076555209884,0.194973161036473,0.225421463949767,0.255869766863063,
0.286318069776357,0.301542221233005,0.316766372689652,0.347214675602946,
0.377662978516241,0.43855958434283,0.49945619016942,0.56035279599601,0.590801098909304,
0.621249401822599,0.651697704735894,0.682146007649188,0.712594310562483,
0.743042613475778,0.803939219302367,0.864835825128957,0.925732430955546),
 .UNSPECIFIED.);
#37=ORIENTED_EDGE('',*,*,#121,.T.);
#38=ORIENTED_EDGE('',*,*,#122,.T.);
#39=ORIENTED_EDGE('',*,*,#123,.F.);
#40=ORIENTED_EDGE('',*,*,#124,.F.);
#41=ORIENTED_EDGE('',*,*,#125,.T.);
#42=ORIENTED_EDGE('',*,*,#126,.T.);
#43=ORIENTED_EDGE('',*,*,#121,.F.);
#44=ORIENTED_EDGE('',*,*,#127,.F.);
#45=ORIENTED_EDGE('',*,*,#128,.T.);
#46=ORIENTED_EDGE('',*,*,#129,.T.);
#47=ORIENTED_EDGE('',*,*,#125,.F.);
#48=ORIENTED_EDGE('',*,*,#130,.F.);
#49=ORIENTED_EDGE('',*,*,#131,.F.);
#50=ORIENTED_EDGE('',*,*,#132,.F.);
#51=ORIENTED_EDGE('',*,*,#133,.T.);
#52=ORIENTED_EDGE('',*,*,#134,.T.);
#53=ORIENTED_EDGE('',*,*,#135,.F.);
#54=ORIENTED_EDGE('',*,*,#134,.F.);
#55=ORIENTED_EDGE('',*,*,#136,.T.);
#56=ORIENTED_EDGE('',*,*,#137,.T.);
#57=ORIENTED_EDGE('',*,*,#138,.F.);
#58=ORIENTED_EDGE('',*,*,#137,.F.);
#59=ORIENTED_EDGE('',*,*,#139,.T.);
#60=ORIENTED_EDGE('',*,*,#140,.T.);
#61=ORIENTED_EDGE('',*,*,#141,.F.);
#62=ORIENTED_EDGE('',*,*,#140,.F.);
#63=ORIENTED_EDGE('',*,*,#142,.T.);
#64=ORIENTED_EDGE('',*,*,#143,.T.);
#65=ORIENTED_EDGE('',*,*,#144,.F.);
#66=ORIENTED_EDGE('',*,*,#143,.F.);
#67=ORIENTED_EDGE('',*,*,#145,.T.);
#68=ORIENTED_EDGE('',*,*,#132,.T.);
#69=ORIENTED_EDGE('',*,*,#123,.T.);
#70=ORIENTED_EDGE('',*,*,#146,.T.);
#71=ORIENTED_EDGE('',*,*,#128,.F.);
#72=ORIENTED_EDGE('',*,*,#147,.F.);
#73=ORIENTED_EDGE('',*,*,#133,.F.);
#74=ORIENTED_EDGE('',*,*,#145,.F.);
#75=ORIENTED_EDGE('',*,*,#142,.F.);
#76=ORIENTED_EDGE('',*,*,#139,.F.);
#77=ORIENTED_EDGE('',*,*,#136,.F.);
#78=ORIENTED_EDGE('',*,*,#124,.T.);
#79=ORIENTED_EDGE('',*,*,#147,.T.);
#80=ORIENTED_EDGE('',*,*,#130,.T.);
#81=ORIENTED_EDGE('',*,*,#127,.T.);
#82=ORIENTED_EDGE('',*,*,#148,.F.);
#83=ORIENTED_EDGE('',*,*,#149,.F.);
#84=ORIENTED_EDGE('',*,*,#150,.F.);
#85=ORIENTED_EDGE('',*,*,#151,.F.);
#86=ORIENTED_EDGE('',*,*,#152,.F.);
#87=ORIENTED_EDGE('',*,*,#144,.T.);
#88=ORIENTED_EDGE('',*,*,#131,.T.);
#89=ORIENTED_EDGE('',*,*,#135,.T.);
#90=ORIENTED_EDGE('',*,*,#138,.T.);
#91=ORIENTED_EDGE('',*,*,#141,.T.);
#92=ORIENTED_EDGE('',*,*,#129,.F.);
#93=ORIENTED_EDGE('',*,*,#146,.F.);
#94=ORIENTED_EDGE('',*,*,#122,.F.);
#95=ORIENTED_EDGE('',*,*,#126,.F.);
#96=ORIENTED_EDGE('',*,*,#153,.T.);
#97=ORIENTED_EDGE('',*,*,#154,.T.);
#98=ORIENTED_EDGE('',*,*,#155,.T.);
#99=ORIENTED_EDGE('',*,*,#156,.T.);
#100=ORIENTED_EDGE('',*,*,#157,.T.);
#101=ORIENTED_EDGE('',*,*,#148,.T.);
#102=ORIENTED_EDGE('',*,*,#158,.F.);
#103=ORIENTED_EDGE('',*,*,#153,.F.);
#104=ORIENTED_EDGE('',*,*,#159,.T.);
#105=ORIENTED_EDGE('',*,*,#152,.T.);
#106=ORIENTED_EDGE('',*,*,#160,.F.);
#107=ORIENTED_EDGE('',*,*,#154,.F.);
#108=ORIENTED_EDGE('',*,*,#158,.T.);
#109=ORIENTED_EDGE('',*,*,#151,.T.);
#110=ORIENTED_EDGE('',*,*,#161,.F.);
#111=ORIENTED_EDGE('',*,*,#155,.F.);
#112=ORIENTED_EDGE('',*,*,#160,.T.);
#113=ORIENTED_EDGE('',*,*,#150,.T.);
#114=ORIENTED_EDGE('',*,*,#162,.F.);
#115=ORIENTED_EDGE('',*,*,#156,.F.);
#116=ORIENTED_EDGE('',*,*,#161,.T.);
#117=ORIENTED_EDGE('',*,*,#149,.T.);
#118=ORIENTED_EDGE('',*,*,#159,.F.);
#119=ORIENTED_EDGE('',*,*,#157,.F.);
#120=ORIENTED_EDGE('',*,*,#162,.T.);
#121=EDGE_CURVE('',#163,#164,#191,.T.);
#122=EDGE_CURVE('',#164,#165,#21,.T.);
#123=EDGE_CURVE('',#166,#165,#192,.T.);
#124=EDGE_CURVE('',#163,#166,#22,.T.);
#125=EDGE_CURVE('',#167,#168,#193,.T.);
#126=EDGE_CURVE('',#168,#164,#23,.T.);
#127=EDGE_CURVE('',#167,#163,#24,.T.);
#128=EDGE_CURVE('',#169,#170,#194,.T.);
#129=EDGE_CURVE('',#170,#168,#195,.T.);
#130=EDGE_CURVE('',#169,#167,#196,.T.);
#131=EDGE_CURVE('',#171,#172,#25,.T.);
#132=EDGE_CURVE('',#173,#171,#197,.T.);
#133=EDGE_CURVE('',#173,#174,#26,.T.);
#134=EDGE_CURVE('',#174,#172,#198,.T.);
#135=EDGE_CURVE('',#172,#175,#199,.T.);
#136=EDGE_CURVE('',#174,#176,#200,.T.);
#137=EDGE_CURVE('',#176,#175,#201,.T.);
#138=EDGE_CURVE('',#175,#177,#202,.T.);
#139=EDGE_CURVE('',#176,#178,#203,.T.);
#140=EDGE_CURVE('',#178,#177,#204,.T.);
#141=EDGE_CURVE('',#177,#179,#27,.T.);
#142=EDGE_CURVE('',#178,#180,#28,.T.);
#143=EDGE_CURVE('',#180,#179,#205,.T.);
#144=EDGE_CURVE('',#179,#171,#29,.T.);
#145=EDGE_CURVE('',#180,#173,#30,.T.);
#146=EDGE_CURVE('',#165,#170,#206,.T.);
#147=EDGE_CURVE('',#166,#169,#207,.T.);
#148=EDGE_CURVE('',#181,#182,#208,.T.);
#149=EDGE_CURVE('',#183,#181,#31,.T.);
#150=EDGE_CURVE('',#184,#183,#32,.T.);
#151=EDGE_CURVE('',#185,#184,#33,.T.);
#152=EDGE_CURVE('',#182,#185,#209,.T.);
#153=EDGE_CURVE('',#186,#187,#210,.T.);
#154=EDGE_CURVE('',#187,#188,#211,.T.);
#155=EDGE_CURVE('',#188,#189,#34,.T.);
#156=EDGE_CURVE('',#189,#190,#35,.T.);
#157=EDGE_CURVE('',#190,#186,#36,.T.);
#158=EDGE_CURVE('',#187,#182,#212,.T.);
#159=EDGE_CURVE('',#186,#181,#213,.T.);
#160=EDGE_CURVE('',#188,#185,#214,.T.);
#161=EDGE_CURVE('',#189,#184,#215,.T.);
#162=EDGE_CURVE('',#190,#183,#216,.T.);
#163=VERTEX_POINT('',#390);
#164=VERTEX_POINT('',#391);
#165=VERTEX_POINT('',#398);
#166=VERTEX_POINT('',#400);
#167=VERTEX_POINT('',#428);
#168=VERTEX_POINT('',#429);
#169=VERTEX_POINT('',#452);
#170=VERTEX_POINT('',#453);
#171=VERTEX_POINT('',#504);
#172=VERTEX_POINT('',#505);
#173=VERTEX_POINT('',#507);
#174=VERTEX_POINT('',#530);
#175=VERTEX_POINT('',#534);
#176=VERTEX_POINT('',#536);
#177=VERTEX_POINT('',#540);
#178=VERTEX_POINT('',#542);
#179=VERTEX_POINT('',#581);
#180=VERTEX_POINT('',#599);
#181=VERTEX_POINT('',#729);
#182=VERTEX_POINT('',#730);
#183=VERTEX_POINT('',#760);
#184=VERTEX_POINT('',#804);
#185=VERTEX_POINT('',#828);
#186=VERTEX_POINT('',#832);
#187=VERTEX_POINT('',#833);
#188=VERTEX_POINT('',#835);
#189=VERTEX_POINT('',#859);
#190=VERTEX_POINT('',#903);
#191=LINE('',#389,#217);
#192=LINE('',#399,#218);
#193=LINE('',#427,#219);
#194=LINE('',#451,#220);
#195=LINE('',#454,#221);
#196=LINE('',#455,#222);
#197=LINE('',#506,#223);
#198=LINE('',#531,#224);
#199=LINE('',#533,#225);
#200=LINE('',#535,#226);
#201=LINE('',#537,#227);
#202=LINE('',#539,#228);
#203=LINE('',#541,#229);
#204=LINE('',#543,#230);
#205=LINE('',#600,#231);
#206=LINE('',#724,#232);
#207=LINE('',#725,#233);
#208=LINE('',#728,#234);
#209=LINE('',#829,#235);
#210=LINE('',#831,#236);
#211=LINE('',#834,#237);
#212=LINE('',#934,#238);
#213=LINE('',#935,#239);
#214=LINE('',#937,#240);
#215=LINE('',#964,#241);
#216=LINE('',#1009,#242);
#217=VECTOR('',#332,1.);
#218=VECTOR('',#333,1.);
#219=VECTOR('',#334,1.);
#220=VECTOR('',#337,1.);
#221=VECTOR('',#338,1.);
#222=VECTOR('',#339,1.);
#223=VECTOR('',#340,1.);
#224=VECTOR('',#341,1.);
#225=VECTOR('',#344,1.);
#226=VECTOR('',#345,1.);
#227=VECTOR('',#346,1.);
#228=VECTOR('',#349,1.);
#229=VECTOR('',#350,1.);
#230=VECTOR('',#351,1.);
#231=VECTOR('',#352,1.);
#232=VECTOR('',#355,1.);
#233=VECTOR('',#356,1.);
#234=VECTOR('',#361,1.);
#235=VECTOR('',#362,1.);
#236=VECTOR('',#365,1.);
#237=VECTOR('',#366,1.);
#238=VECTOR('',#369,1.);
#239=VECTOR('',#370,1.);
#240=VECTOR('',#373,1.);
#241=VECTOR('',#374,1.);
#242=VECTOR('',#375,1.);
#243=EDGE_LOOP('',(#37,#38,#39,#40));
#244=EDGE_LOOP('',(#41,#42,#43,#44));
#245=EDGE_LOOP('',(#45,#46,#47,#48));
#246=EDGE_LOOP('',(#49,#50,#51,#52));
#247=EDGE_LOOP('',(#53,#54,#55,#56));
#248=EDGE_LOOP('',(#57,#58,#59,#60));
#249=EDGE_LOOP('',(#61,#62,#63,#64));
#250=EDGE_LOOP('',(#65,#66,#67,#68));
#251=EDGE_LOOP('',(#69,#70,#71,#72));
#252=EDGE_LOOP('',(#73,#74,#75,#76,#77));
#253=EDGE_LOOP('',(#78,#79,#80,#81));
#254=EDGE_LOOP('',(#82,#83,#84,#85,#86));
#255=EDGE_LOOP('',(#87,#88,#89,#90,#91));
#256=EDGE_LOOP('',(#92,#93,#94,#95));
#257=EDGE_LOOP('',(#96,#97,#98,#99,#100));
#258=EDGE_LOOP('',(#101,#102,#103,#104));
#259=EDGE_LOOP('',(#105,#106,#107,#108));
#260=EDGE_LOOP('',(#109,#110,#111,#112));
#261=EDGE_LOOP('',(#113,#114,#115,#116));
#262=EDGE_LOOP('',(#117,#118,#119,#120));
#263=FACE_BOUND('',#243,.T.);
#264=FACE_BOUND('',#244,.T.);
#265=FACE_BOUND('',#245,.T.);
#266=FACE_BOUND('',#246,.T.);
#267=FACE_BOUND('',#247,.T.);
#268=FACE_BOUND('',#248,.T.);
#269=FACE_BOUND('',#249,.T.);
#270=FACE_BOUND('',#250,.T.);
#271=FACE_BOUND('',#251,.T.);
#272=FACE_BOUND('',#252,.T.);
#273=FACE_BOUND('',#253,.T.);
#274=FACE_BOUND('',#254,.T.);
#275=FACE_BOUND('',#255,.T.);
#276=FACE_BOUND('',#256,.T.);
#277=FACE_BOUND('',#257,.T.);
#278=FACE_BOUND('',#258,.T.);
#279=FACE_BOUND('',#259,.T.);
#280=FACE_BOUND('',#260,.T.);
#281=FACE_BOUND('',#261,.T.);
#282=FACE_BOUND('',#262,.T.);
#283=B_SPLINE_SURFACE_WITH_KNOTS('',3,1,((#377,#378),(#379,#380),(#381,
#382),(#383,#384),(#385,#386),(#387,#388)),.SURF_OF_LINEAR_EXTRUSION.,.F.,
 .F.,.F.,(4,1,1,4),(2,2),(0.,0.288916775171177,0.640254616403116,1.),(0.,
1.),.UNSPECIFIED.);
#284=B_SPLINE_SURFACE_WITH_KNOTS('',3,1,((#407,#408),(#409,#410),(#411,
#412),(#413,#414),(#415,#416),(#417,#418),(#419,#420),(#421,#422),(#423,
#424),(#425,#426)),.SURF_OF_LINEAR_EXTRUSION.,.F.,.F.,.F.,(4,1,1,1,1,1,
1,4),(2,2),(0.,0.195058430614277,0.374320054929637,0.430744131952276,0.605870595630119,
0.761635711533119,0.897524479960847,1.),(0.,1.),.UNSPECIFIED.);
#285=B_SPLINE_SURFACE_WITH_KNOTS('',3,1,((#456,#457),(#458,#459),(#460,
#461),(#462,#463),(#464,#465),(#466,#467),(#468,#469),(#470,#471),(#472,
#473),(#474,#475),(#476,#477),(#478,#479),(#480,#481)),
 .SURF_OF_LINEAR_EXTRUSION.,.F.,.F.,.F.,(4,1,1,1,1,1,1,1,1,1,4),(2,2),(-0.0138895035056809,
0.11012350597733,0.234136515460341,0.296143020201846,0.358149524943351,
0.482162534426362,0.606175543909373,0.668182048650878,0.730188553392383,
0.854201562875394,0.978214572358405),(0.,1.),.UNSPECIFIED.);
#286=B_SPLINE_SURFACE_WITH_KNOTS('',3,1,((#544,#545),(#546,#547),(#548,
#549),(#550,#551),(#552,#553),(#554,#555),(#556,#557),(#558,#559),(#560,
#561),(#562,#563)),.SURF_OF_LINEAR_EXTRUSION.,.F.,.F.,.F.,(4,1,1,1,1,1,
1,4),(2,2),(-0.0259652475580958,0.0643830096994211,0.109557138328179,0.154731266956938,
0.199905395585696,0.245079524214455,0.290253652843213,0.335427781471971),
(0.,1.),.UNSPECIFIED.);
#287=B_SPLINE_SURFACE_WITH_KNOTS('',3,1,((#601,#602),(#603,#604),(#605,
#606),(#607,#608),(#609,#610),(#611,#612),(#613,#614),(#615,#616),(#617,
#618),(#619,#620),(#621,#622),(#623,#624),(#625,#626),(#627,#628),(#629,
#630),(#631,#632),(#633,#634),(#635,#636),(#637,#638),(#639,#640),(#641,
#642),(#643,#644),(#645,#646)),.SURF_OF_LINEAR_EXTRUSION.,.F.,.F.,.F.,(4,
1,1,1,1,1,1,1,1,1,1,1,1,1,1,1,1,1,1,1,4),(2,2),(0.425414072997648,0.43454538469123,
0.443676696384812,0.461939319771976,0.48020194315914,0.498464566546304,
0.534989813320632,0.571515060094961,0.608040306869289,0.644565553643617,
0.681090800417945,0.717616047192273,0.754141293966601,0.790666540740929,
0.827191787515257,0.863717034289586,0.88197965767675,0.900242281063914,
0.936767527838242,0.97329277461257,1.0098180213869),(0.,1.),
 .UNSPECIFIED.);
#288=B_SPLINE_SURFACE_WITH_KNOTS('',3,1,((#938,#939),(#940,#941),(#942,
#943),(#944,#945),(#946,#947),(#948,#949),(#950,#951),(#952,#953),(#954,
#955),(#956,#957),(#958,#959),(#960,#961),(#962,#963)),
 .SURF_OF_LINEAR_EXTRUSION.,.F.,.F.,.F.,(4,1,1,1,1,1,1,1,1,1,4),(2,2),(-0.0908783664533361,
-0.0430810364414593,0.00471629357041755,0.0525136235822944,0.100310953594171,
0.148108283606048,0.172006948611986,0.195905613617925,0.219804278623863,
0.243702943629802,0.291500273641678),(0.,1.),.UNSPECIFIED.);
#289=B_SPLINE_SURFACE_WITH_KNOTS('',3,1,((#965,#966),(#967,#968),(#969,
#970),(#971,#972),(#973,#974),(#975,#976),(#977,#978),(#979,#980),(#981,
#982),(#983,#984),(#985,#986),(#987,#988),(#989,#990),(#991,#992),(#993,
#994),(#995,#996),(#997,#998),(#999,#1000),(#1001,#1002),(#1003,#1004),
(#1005,#1006),(#1007,#1008)),.SURF_OF_LINEAR_EXTRUSION.,.F.,.F.,.F.,(4,
1,1,1,1,1,1,1,1,1,1,1,1,1,1,1,1,1,1,4),(2,2),(0.45810893409305,0.494124817890618,
0.530140701688187,0.566156585485755,0.602172469283324,0.67420423687846,
0.710220120676029,0.746236004473597,0.782251888271166,0.818267772068734,
0.854283655866302,0.872291597765086,0.890299539663871,0.908307481562655,
0.926315423461439,0.962331307259007,0.980339249157792,0.998347191056576,
1.01635513295536,1.03436307485414),(0.,1.),.UNSPECIFIED.);
#290=B_SPLINE_SURFACE_WITH_KNOTS('',3,1,((#1010,#1011),(#1012,#1013),(#1014,
#1015),(#1016,#1017),(#1018,#1019),(#1020,#1021),(#1022,#1023),(#1024,#1025),
(#1026,#1027),(#1028,#1029),(#1030,#1031),(#1032,#1033),(#1034,#1035),(#1036,
#1037),(#1038,#1039),(#1040,#1041)),.SURF_OF_LINEAR_EXTRUSION.,.F.,.F.,
 .F.,(4,1,1,1,1,1,1,1,1,1,1,1,1,4),(2,2),(-0.0486132622698847,0.0122833435567047,
0.0731799493832941,0.134076555209884,0.194973161036473,0.255869766863062,
0.316766372689652,0.377662978516241,0.438559584342831,0.56035279599601,
0.621249401822599,0.682146007649188,0.803939219302367,0.925732430955546),
(0.,1.),.UNSPECIFIED.);
#291=ADVANCED_FACE('',(#263),#283,.F.);
#292=ADVANCED_FACE('',(#264),#284,.F.);
#293=ADVANCED_FACE('',(#265),#12,.F.);
#294=ADVANCED_FACE('',(#266),#285,.T.);
#295=ADVANCED_FACE('',(#267),#13,.T.);
#296=ADVANCED_FACE('',(#268),#14,.T.);
#297=ADVANCED_FACE('',(#269),#286,.T.);
#298=ADVANCED_FACE('',(#270),#287,.T.);
#299=ADVANCED_FACE('',(#271),#15,.F.);
#300=ADVANCED_FACE('',(#272,#273),#16,.F.);
#301=ADVANCED_FACE('',(#274,#275),#17,.F.);
#302=ADVANCED_FACE('',(#276,#277),#18,.T.);
#303=ADVANCED_FACE('',(#278),#19,.F.);
#304=ADVANCED_FACE('',(#279),#20,.F.);
#305=ADVANCED_FACE('',(#280),#288,.F.);
#306=ADVANCED_FACE('',(#281),#289,.F.);
#307=ADVANCED_FACE('',(#282),#290,.F.);
#308=CLOSED_SHELL('',(#291,#292,#293,#294,#295,#296,#297,#298,#299,#300,
#301,#302,#303,#304,#305,#306,#307));
#309=STYLED_ITEM('',(#310),#317);
#310=PRESENTATION_STYLE_ASSIGNMENT((#311));
#311=SURFACE_STYLE_USAGE(.BOTH.,#312);
#312=SURFACE_SIDE_STYLE('',(#313));
#313=SURFACE_STYLE_FILL_AREA(#314);
#314=FILL_AREA_STYLE('',(#315));
#315=FILL_AREA_STYLE_COLOUR('',#316);
#316=COLOUR_RGB('',0.647058823529412,0.647058823529412,0.647058823529412);
#317=MANIFOLD_SOLID_BREP('Part 2',#308);
#318=SHAPE_DEFINITION_REPRESENTATION(#1048,#319);
#319=SHAPE_REPRESENTATION('Part 2',(#320),#1043);
#320=AXIS2_PLACEMENT_3D('',#376,#330,#331);
#321=AXIS2_PLACEMENT_3D('',#450,#335,#336);
#322=AXIS2_PLACEMENT_3D('',#532,#342,#343);
#323=AXIS2_PLACEMENT_3D('',#538,#347,#348);
#324=AXIS2_PLACEMENT_3D('',#723,#353,#354);
#325=AXIS2_PLACEMENT_3D('',#726,#357,#358);
#326=AXIS2_PLACEMENT_3D('',#727,#359,#360);
#327=AXIS2_PLACEMENT_3D('',#830,#363,#364);
#328=AXIS2_PLACEMENT_3D('',#933,#367,#368);
#329=AXIS2_PLACEMENT_3D('',#936,#371,#372);
#330=DIRECTION('',(0.,0.,1.));
#331=DIRECTION('',(1.,0.,0.));
#332=DIRECTION('',(0.,0.,-1.));
#333=DIRECTION('',(0.,0.,-1.));
#334=DIRECTION('',(0.,0.,-1.));
#335=DIRECTION('',(0.999254487908312,0.0386065848670513,0.));
#336=DIRECTION('',(-0.0386065848670513,0.999254487908312,0.));
#337=DIRECTION('',(0.,0.,-1.));
#338=DIRECTION('',(0.0386065848670513,-0.999254487908312,0.));
#339=DIRECTION('',(0.0386065848670513,-0.999254487908312,0.));
#340=DIRECTION('',(0.,0.,-1.));
#341=DIRECTION('',(0.,0.,-1.));
#342=DIRECTION('',(-0.362670158349123,0.931917569446473,0.));
#343=DIRECTION('',(-0.931917569446473,-0.362670158349123,0.));
#344=DIRECTION('',(0.931917569446473,0.362670158349123,0.));
#345=DIRECTION('',(0.931917569446473,0.362670158349123,0.));
#346=DIRECTION('',(0.,0.,-1.));
#347=DIRECTION('',(0.999254487908312,0.0386065848670513,0.));
#348=DIRECTION('',(-0.0386065848670513,0.999254487908312,0.));
#349=DIRECTION('',(0.0386065848670513,-0.999254487908312,0.));
#350=DIRECTION('',(0.0386065848670513,-0.999254487908312,0.));
#351=DIRECTION('',(0.,0.,-1.));
#352=DIRECTION('',(0.,0.,-1.));
#353=DIRECTION('',(-0.362670158349123,0.931917569446473,0.));
#354=DIRECTION('',(-0.931917569446473,-0.362670158349123,0.));
#355=DIRECTION('',(0.931917569446473,0.362670158349123,0.));
#356=DIRECTION('',(0.931917569446473,0.362670158349123,0.));
#357=DIRECTION('',(0.,0.,-1.));
#358=DIRECTION('',(-1.,0.,0.));
#359=DIRECTION('',(0.,0.,-1.));
#360=DIRECTION('',(-1.,0.,0.));
#361=DIRECTION('',(0.931917569446473,0.362670158349123,0.));
#362=DIRECTION('',(0.0386065848670513,-0.999254487908312,0.));
#363=DIRECTION('',(0.,0.,-1.));
#364=DIRECTION('',(-1.,0.,0.));
#365=DIRECTION('',(0.931917569446473,0.362670158349123,0.));
#366=DIRECTION('',(0.0386065848670513,-0.999254487908312,0.));
#367=DIRECTION('',(0.362670158349123,-0.931917569446473,0.));
#368=DIRECTION('',(0.931917569446473,0.362670158349123,0.));
#369=DIRECTION('',(0.,0.,1.));
#370=DIRECTION('',(0.,0.,1.));
#371=DIRECTION('',(-0.999254487908312,-0.0386065848670513,0.));
#372=DIRECTION('',(0.0386065848670513,-0.999254487908312,0.));
#373=DIRECTION('',(0.,0.,1.));
#374=DIRECTION('',(0.,0.,1.));
#375=DIRECTION('',(0.,0.,1.));
#376=CARTESIAN_POINT('',(0.,0.,0.));
#377=CARTESIAN_POINT('',(0.0069132190397542,-0.00424931702341388,0.0127));
#378=CARTESIAN_POINT('',(0.0069132190397542,-0.00424931702341388,-0.002));
#379=CARTESIAN_POINT('',(0.00865588447910148,-0.00138550027658858,0.0127));
#380=CARTESIAN_POINT('',(0.00865588447910148,-0.00138550027658858,-0.002));
#381=CARTESIAN_POINT('',(0.0125177218256079,0.00496086674069903,0.0127));
#382=CARTESIAN_POINT('',(0.0125177218256079,0.00496086674069903,-0.002));
#383=CARTESIAN_POINT('',(0.029052699046262,0.00839963783740893,0.0127));
#384=CARTESIAN_POINT('',(0.029052699046262,0.00839963783740893,-0.002));
#385=CARTESIAN_POINT('',(0.0381584131682946,0.00297412340076809,0.0127));
#386=CARTESIAN_POINT('',(0.0381584131682946,0.00297412340076809,-0.002));
#387=CARTESIAN_POINT('',(0.0427651012539864,0.000229291707277299,0.0127));
#388=CARTESIAN_POINT('',(0.0427651012539864,0.000229291707277299,-0.002));
#389=CARTESIAN_POINT('',(0.0069132190397542,-0.00424931702341388,0.0127));
#390=CARTESIAN_POINT('',(0.0069132190397542,-0.00424931702341388,0.0127));
#391=CARTESIAN_POINT('',(0.0069132190397542,-0.00424931702341388,-0.002));
#392=CARTESIAN_POINT('',(0.0069132190397542,-0.00424931702341388,-0.002));
#393=CARTESIAN_POINT('',(0.00865588447910148,-0.00138550027658858,-0.002));
#394=CARTESIAN_POINT('',(0.0125177218256079,0.00496086674069903,-0.002));
#395=CARTESIAN_POINT('',(0.029052699046262,0.00839963783740893,-0.002));
#396=CARTESIAN_POINT('',(0.0381584131682946,0.00297412340076809,-0.002));
#397=CARTESIAN_POINT('',(0.0427651012539864,0.000229291707277299,-0.002));
#398=CARTESIAN_POINT('',(0.0427651012539864,0.000229291707277299,-0.002));
#399=CARTESIAN_POINT('',(0.0427651012539864,0.000229291707277299,0.0127));
#400=CARTESIAN_POINT('',(0.0427651012539864,0.000229291707277299,0.0127));
#401=CARTESIAN_POINT('',(0.0069132190397542,-0.00424931702341388,0.0127));
#402=CARTESIAN_POINT('',(0.00865588447910148,-0.00138550027658858,0.0127));
#403=CARTESIAN_POINT('',(0.0125177218256079,0.00496086674069903,0.0127));
#404=CARTESIAN_POINT('',(0.029052699046262,0.00839963783740893,0.0127));
#405=CARTESIAN_POINT('',(0.0381584131682946,0.00297412340076809,0.0127));
#406=CARTESIAN_POINT('',(0.0427651012539864,0.000229291707277299,0.0127));
#407=CARTESIAN_POINT('',(0.0725495843621852,-0.0254595507960253,0.0127));
#408=CARTESIAN_POINT('',(0.0725495843621852,-0.0254595507960253,-0.002));
#409=CARTESIAN_POINT('',(0.0667514661490297,-0.0247972683939701,0.0127));
#410=CARTESIAN_POINT('',(0.0667514661490297,-0.0247972683939701,-0.002));
#411=CARTESIAN_POINT('',(0.0556247903052733,-0.0235263385277983,0.0127));
#412=CARTESIAN_POINT('',(0.0556247903052733,-0.0235263385277983,-0.002));
#413=CARTESIAN_POINT('',(0.0402652199640603,-0.0118228032908114,0.0127));
#414=CARTESIAN_POINT('',(0.0402652199640603,-0.0118228032908114,-0.002));
#415=CARTESIAN_POINT('',(0.0404603987383124,-0.0159726441454226,0.0127));
#416=CARTESIAN_POINT('',(0.0404603987383124,-0.0159726441454226,-0.002));
#417=CARTESIAN_POINT('',(0.0243185277533454,-0.0195748065954486,0.0127));
#418=CARTESIAN_POINT('',(0.0243185277533454,-0.0195748065954486,-0.002));
#419=CARTESIAN_POINT('',(0.0139857720782745,-0.0167629991376738,0.0127));
#420=CARTESIAN_POINT('',(0.0139857720782745,-0.0167629991376738,-0.002));
#421=CARTESIAN_POINT('',(0.00650924327326685,-0.00982959869252763,0.0127));
#422=CARTESIAN_POINT('',(0.00650924327326685,-0.00982959869252763,-0.002));
#423=CARTESIAN_POINT('',(0.00679176131761939,-0.00592706196909345,0.0127));
#424=CARTESIAN_POINT('',(0.00679176131761939,-0.00592706196909345,-0.002));
#425=CARTESIAN_POINT('',(0.0069132190397542,-0.00424931702341388,0.0127));
#426=CARTESIAN_POINT('',(0.0069132190397542,-0.00424931702341388,-0.002));
#427=CARTESIAN_POINT('',(0.0725495843621852,-0.0254595507960253,0.0127));
#428=CARTESIAN_POINT('',(0.0725495843621852,-0.0254595507960253,0.0127));
#429=CARTESIAN_POINT('',(0.0725495843621852,-0.0254595507960253,-0.002));
#430=CARTESIAN_POINT('',(0.0725495843621852,-0.0254595507960253,-0.002));
#431=CARTESIAN_POINT('',(0.0667514661490297,-0.0247972683939701,-0.002));
#432=CARTESIAN_POINT('',(0.0556247903052733,-0.0235263385277983,-0.002));
#433=CARTESIAN_POINT('',(0.0402652199640603,-0.0118228032908114,-0.002));
#434=CARTESIAN_POINT('',(0.0404603987383124,-0.0159726441454226,-0.002));
#435=CARTESIAN_POINT('',(0.0243185277533454,-0.0195748065954486,-0.002));
#436=CARTESIAN_POINT('',(0.0139857720782745,-0.0167629991376738,-0.002));
#437=CARTESIAN_POINT('',(0.00650924327326685,-0.00982959869252763,-0.002));
#438=CARTESIAN_POINT('',(0.00679176131761939,-0.00592706196909345,-0.002));
#439=CARTESIAN_POINT('',(0.0069132190397542,-0.00424931702341388,-0.002));
#440=CARTESIAN_POINT('',(0.0725495843621852,-0.0254595507960253,0.0127));
#441=CARTESIAN_POINT('',(0.0667514661490297,-0.0247972683939701,0.0127));
#442=CARTESIAN_POINT('',(0.0556247903052733,-0.0235263385277983,0.0127));
#443=CARTESIAN_POINT('',(0.0402652199640603,-0.0118228032908114,0.0127));
#444=CARTESIAN_POINT('',(0.0404603987383124,-0.0159726441454226,0.0127));
#445=CARTESIAN_POINT('',(0.0243185277533454,-0.0195748065954486,0.0127));
#446=CARTESIAN_POINT('',(0.0139857720782745,-0.0167629991376738,0.0127));
#447=CARTESIAN_POINT('',(0.00650924327326685,-0.00982959869252763,0.0127));
#448=CARTESIAN_POINT('',(0.00679176131761939,-0.00592706196909345,0.0127));
#449=CARTESIAN_POINT('',(0.0069132190397542,-0.00424931702341388,0.0127));
#450=CARTESIAN_POINT('',(0.0718400896262035,-0.00709569391724294,0.0127));
#451=CARTESIAN_POINT('',(0.0711305948902217,0.0112681629615395,0.0127));
#452=CARTESIAN_POINT('',(0.0711305948902217,0.0112681629615395,0.0127));
#453=CARTESIAN_POINT('',(0.0711305948902217,0.0112681629615395,-0.002));
#454=CARTESIAN_POINT('',(0.0718400896262035,-0.00709569391724294,-0.002));
#455=CARTESIAN_POINT('',(0.0718400896262035,-0.00709569391724294,0.0127));
#456=CARTESIAN_POINT('',(0.00495334936999076,-0.00362268160580808,0.0127));
#457=CARTESIAN_POINT('',(0.00495334936999076,-0.00362268160580808,-1.73472347597681E-18));
#458=CARTESIAN_POINT('',(0.00570136126901408,-0.00239343303354629,0.0127));
#459=CARTESIAN_POINT('',(0.00570136126901408,-0.00239343303354629,-1.73472347597681E-18));
#460=CARTESIAN_POINT('',(0.00721288641930361,0.000144426133725283,0.0127));
#461=CARTESIAN_POINT('',(0.00721288641930361,0.000144426133725283,-1.73472347597681E-18));
#462=CARTESIAN_POINT('',(0.00978626856596967,0.00326796336404869,0.0127));
#463=CARTESIAN_POINT('',(0.00978626856596967,0.00326796336404869,1.73472347597681E-18));
#464=CARTESIAN_POINT('',(0.0126294884227451,0.00539798939351687,0.0127));
#465=CARTESIAN_POINT('',(0.0126294884227451,0.00539798939351687,-3.46944695195361E-18));
#466=CARTESIAN_POINT('',(0.0159601596245408,0.00711596186257738,0.0127));
#467=CARTESIAN_POINT('',(0.0159601596245408,0.00711596186257738,-1.73472347597681E-18));
#468=CARTESIAN_POINT('',(0.0207441974012635,0.00849351488533748,0.0127));
#469=CARTESIAN_POINT('',(0.0207441974012635,0.00849351488533748,-1.73472347597681E-18));
#470=CARTESIAN_POINT('',(0.0258820026827865,0.00879543078578919,0.0127));
#471=CARTESIAN_POINT('',(0.0258820026827865,0.00879543078578919,-3.46944695195361E-18));
#472=CARTESIAN_POINT('',(0.0299031539226886,0.00826620985738821,0.0127));
#473=CARTESIAN_POINT('',(0.0299031539226886,0.00826620985738821,-5.20417042793042E-18));
#474=CARTESIAN_POINT('',(0.0337018904184561,0.00724976943589972,0.0127));
#475=CARTESIAN_POINT('',(0.0337018904184561,0.00724976943589972,1.73472347597681E-18));
#476=CARTESIAN_POINT('',(0.0380939505564258,0.00529810863827904,0.0127));
#477=CARTESIAN_POINT('',(0.0380939505564258,0.00529810863827904,-1.73472347597681E-18));
#478=CARTESIAN_POINT('',(0.0413511438172005,0.00339627059712391,0.0127));
#479=CARTESIAN_POINT('',(0.0413511438172005,0.00339627059712391,-1.73472347597681E-18));
#480=CARTESIAN_POINT('',(0.0429493193257641,0.0024470955828819,0.0127));
#481=CARTESIAN_POINT('',(0.0429493193257641,0.0024470955828819,-1.73472347597681E-18));
#482=CARTESIAN_POINT('',(0.00495334936999076,-0.00362268160580808,0.));
#483=CARTESIAN_POINT('',(0.00514035234474659,-0.00331536946274263,0.));
#484=CARTESIAN_POINT('',(0.00551336593850071,-0.00270107746345067,0.));
#485=CARTESIAN_POINT('',(0.00628363073045376,-0.00144823899516235,0.));
#486=CARTESIAN_POINT('',(0.00731569663307178,0.000138613180562457,0.));
#487=CARTESIAN_POINT('',(0.00875808528416934,0.00201916943588989,0.));
#488=CARTESIAN_POINT('',(0.0102096467750096,0.00350444028481473,0.));
#489=CARTESIAN_POINT('',(0.0115583678735001,0.00459738227570507,0.));
#490=CARTESIAN_POINT('',(0.0126757855921566,0.0053596538106368,0.));
#491=CARTESIAN_POINT('',(0.0138810088031092,0.00604289867254322,0.));
#492=CARTESIAN_POINT('',(0.0155839782104646,0.00684964111964556,0.));
#493=CARTESIAN_POINT('',(0.0178722282261288,0.00766585517659216,0.));
#494=CARTESIAN_POINT('',(0.0207974101012811,0.00833298658823432,0.));
#495=CARTESIAN_POINT('',(0.0238278367820881,0.00867252323572537,0.));
#496=CARTESIAN_POINT('',(0.0263768742522565,0.00866393201514111,0.));
#497=CARTESIAN_POINT('',(0.0283956572214777,0.00846710597447717,0.));
#498=CARTESIAN_POINT('',(0.0303777766213716,0.0081377456875661,0.));
#499=CARTESIAN_POINT('',(0.0327520054953441,0.00750437025080333,0.));
#500=CARTESIAN_POINT('',(0.0354597407464362,0.00646893136119504,0.));
#501=CARTESIAN_POINT('',(0.0389076331079442,0.0048227533813841,0.));
#502=CARTESIAN_POINT('',(0.0413511438172004,0.00339627059712392,0.));
#503=CARTESIAN_POINT('',(0.0429493193257641,0.0024470955828819,0.));
#504=CARTESIAN_POINT('',(0.00495334936999075,-0.00362268160580811,0.));
#505=CARTESIAN_POINT('',(0.0429493193257641,0.00244709558288189,0.));
#506=CARTESIAN_POINT('',(0.00495334936999075,-0.00362268160580811,0.0127));
#507=CARTESIAN_POINT('',(0.00495334936999075,-0.00362268160580811,0.0127));
#508=CARTESIAN_POINT('',(0.00495334936999076,-0.00362268160580808,0.0127));
#509=CARTESIAN_POINT('',(0.00514035234474659,-0.00331536946274263,0.0127));
#510=CARTESIAN_POINT('',(0.00551336593850071,-0.00270107746345067,0.0127));
#511=CARTESIAN_POINT('',(0.00628363073045376,-0.00144823899516235,0.0127));
#512=CARTESIAN_POINT('',(0.00731569663307178,0.000138613180562457,0.0127));
#513=CARTESIAN_POINT('',(0.00875808528416934,0.00201916943588989,0.0127));
#514=CARTESIAN_POINT('',(0.0102096467750096,0.00350444028481473,0.0127));
#515=CARTESIAN_POINT('',(0.0115583678735001,0.00459738227570507,0.0127));
#516=CARTESIAN_POINT('',(0.0126757855921566,0.0053596538106368,0.0127));
#517=CARTESIAN_POINT('',(0.0138810088031092,0.00604289867254322,0.0127));
#518=CARTESIAN_POINT('',(0.0155839782104646,0.00684964111964556,0.0127));
#519=CARTESIAN_POINT('',(0.0178722282261288,0.00766585517659216,0.0127));
#520=CARTESIAN_POINT('',(0.0207974101012811,0.00833298658823432,0.0127));
#521=CARTESIAN_POINT('',(0.0238278367820881,0.00867252323572537,0.0127));
#522=CARTESIAN_POINT('',(0.0263768742522565,0.00866393201514111,0.0127));
#523=CARTESIAN_POINT('',(0.0283956572214777,0.00846710597447717,0.0127));
#524=CARTESIAN_POINT('',(0.0303777766213716,0.0081377456875661,0.0127));
#525=CARTESIAN_POINT('',(0.0327520054953441,0.00750437025080333,0.0127));
#526=CARTESIAN_POINT('',(0.0354597407464362,0.00646893136119504,0.0127));
#527=CARTESIAN_POINT('',(0.0389076331079442,0.0048227533813841,0.0127));
#528=CARTESIAN_POINT('',(0.0413511438172004,0.00339627059712392,0.0127));
#529=CARTESIAN_POINT('',(0.0429493193257641,0.0024470955828819,0.0127));
#530=CARTESIAN_POINT('',(0.0429493193257641,0.00244709558288189,0.0127));
#531=CARTESIAN_POINT('',(0.0429493193257641,0.00244709558288189,0.0127));
#532=CARTESIAN_POINT('',(0.0562225077554058,0.00761256247330132,0.0127));
#533=CARTESIAN_POINT('',(0.0562225077554058,0.00761256247330132,0.));
#534=CARTESIAN_POINT('',(0.0730207515716527,0.0141498592735366,0.));
#535=CARTESIAN_POINT('',(0.0562225077554058,0.00761256247330132,0.0127));
#536=CARTESIAN_POINT('',(0.0730207515716527,0.0141498592735366,0.0127));
#537=CARTESIAN_POINT('',(0.0730207515716527,0.0141498592735366,0.0127));
#538=CARTESIAN_POINT('',(0.0738385986020201,-0.00701848074750883,0.0127));
#539=CARTESIAN_POINT('',(0.0738385986020201,-0.00701848074750883,0.));
#540=CARTESIAN_POINT('',(0.0746380663492541,-0.0277111096633443,0.));
#541=CARTESIAN_POINT('',(0.0738385986020201,-0.00701848074750883,0.0127));
#542=CARTESIAN_POINT('',(0.0746380663492541,-0.0277111096633443,0.0127));
#543=CARTESIAN_POINT('',(0.0746380663492541,-0.0277111096633443,0.0127));
#544=CARTESIAN_POINT('',(0.0746380663492541,-0.0277111096633444,0.0127));
#545=CARTESIAN_POINT('',(0.0746380663492541,-0.0277111096633444,-3.46944695195361E-18));
#546=CARTESIAN_POINT('',(0.0719524614549569,-0.0274043499880532,0.0127));
#547=CARTESIAN_POINT('',(0.0719524614549569,-0.0274043499880532,-3.46944695195361E-18));
#548=CARTESIAN_POINT('',(0.0679230028253888,-0.0270024114680349,0.0127));
#549=CARTESIAN_POINT('',(0.0679230028253888,-0.0270024114680349,5.20417042793042E-18));
#550=CARTESIAN_POINT('',(0.0622349718080207,-0.0259383700618361,0.0127));
#551=CARTESIAN_POINT('',(0.0622349718080207,-0.0259383700618361,-5.20417042793042E-18));
#552=CARTESIAN_POINT('',(0.0578195570284649,-0.0246768206172452,0.0127));
#553=CARTESIAN_POINT('',(0.0578195570284649,-0.0246768206172452,-5.20417042793042E-18));
#554=CARTESIAN_POINT('',(0.0531909296016716,-0.022731832626026,0.0127));
#555=CARTESIAN_POINT('',(0.0531909296016716,-0.022731832626026,-3.46944695195361E-18));
#556=CARTESIAN_POINT('',(0.0485207574222771,-0.0200756503706368,0.0127));
#557=CARTESIAN_POINT('',(0.0485207574222771,-0.0200756503706368,0.));
#558=CARTESIAN_POINT('',(0.0443547948044097,-0.01747319907494,0.0127));
#559=CARTESIAN_POINT('',(0.0443547948044097,-0.01747319907494,0.));
#560=CARTESIAN_POINT('',(0.0422400338356029,-0.0162244513866964,0.0127));
#561=CARTESIAN_POINT('',(0.0422400338356029,-0.0162244513866964,-3.46944695195361E-18));
#562=CARTESIAN_POINT('',(0.0415177916412428,-0.0158665932579737,0.0127));
#563=CARTESIAN_POINT('',(0.0415177916412428,-0.0158665932579737,-3.46944695195361E-18));
#564=CARTESIAN_POINT('',(0.0746380663492541,-0.0277111096633443,0.));
#565=CARTESIAN_POINT('',(0.0739666651256798,-0.0276344197445215,0.));
#566=CARTESIAN_POINT('',(0.0726248715921397,-0.0274809265467201,0.));
#567=CARTESIAN_POINT('',(0.0699332132161909,-0.0271748470323651,0.));
#568=CARTESIAN_POINT('',(0.0664976272000189,-0.0267382763457248,0.));
#569=CARTESIAN_POINT('',(0.0629474557426208,-0.0260722781047581,0.));
#570=CARTESIAN_POINT('',(0.0600252738890761,-0.0253055951328279,0.));
#571=CARTESIAN_POINT('',(0.05779138773851,-0.0245902013586878,0.));
#572=CARTESIAN_POINT('',(0.055892985190115,-0.0238576040508344,0.));
#573=CARTESIAN_POINT('',(0.0543523910633921,-0.0231794598540672,0.));
#574=CARTESIAN_POINT('',(0.0527939505748223,-0.0224336293575093,0.));
#575=CARTESIAN_POINT('',(0.0508525716532102,-0.0213995402420453,0.));
#576=CARTESIAN_POINT('',(0.047829046234287,-0.0196445161761212,0.));
#577=CARTESIAN_POINT('',(0.0450438979375293,-0.0179054921659967,0.));
#578=CARTESIAN_POINT('',(0.0427772120463098,-0.0165385217719613,0.));
#579=CARTESIAN_POINT('',(0.0418789127384228,-0.016045522322335,0.));
#580=CARTESIAN_POINT('',(0.0415177916412428,-0.0158665932579737,0.));
#581=CARTESIAN_POINT('',(0.0415177916412428,-0.0158665932579737,0.));
#582=CARTESIAN_POINT('',(0.0746380663492541,-0.0277111096633443,0.0127));
#583=CARTESIAN_POINT('',(0.0739666651256798,-0.0276344197445215,0.0127));
#584=CARTESIAN_POINT('',(0.0726248715921397,-0.0274809265467201,0.0127));
#585=CARTESIAN_POINT('',(0.0699332132161909,-0.0271748470323651,0.0127));
#586=CARTESIAN_POINT('',(0.0664976272000189,-0.0267382763457248,0.0127));
#587=CARTESIAN_POINT('',(0.0629474557426208,-0.0260722781047581,0.0127));
#588=CARTESIAN_POINT('',(0.0600252738890761,-0.0253055951328279,0.0127));
#589=CARTESIAN_POINT('',(0.05779138773851,-0.0245902013586878,0.0127));
#590=CARTESIAN_POINT('',(0.055892985190115,-0.0238576040508344,0.0127));
#591=CARTESIAN_POINT('',(0.0543523910633921,-0.0231794598540672,0.0127));
#592=CARTESIAN_POINT('',(0.0527939505748223,-0.0224336293575093,0.0127));
#593=CARTESIAN_POINT('',(0.0508525716532102,-0.0213995402420453,0.0127));
#594=CARTESIAN_POINT('',(0.047829046234287,-0.0196445161761212,0.0127));
#595=CARTESIAN_POINT('',(0.0450438979375293,-0.0179054921659967,0.0127));
#596=CARTESIAN_POINT('',(0.0427772120463098,-0.0165385217719613,0.0127));
#597=CARTESIAN_POINT('',(0.0418789127384228,-0.016045522322335,0.0127));
#598=CARTESIAN_POINT('',(0.0415177916412428,-0.0158665932579737,0.0127));
#599=CARTESIAN_POINT('',(0.0415177916412428,-0.0158665932579737,0.0127));
#600=CARTESIAN_POINT('',(0.0415177916412428,-0.0158665932579737,0.0127));
#601=CARTESIAN_POINT('',(0.0415177916412428,-0.0158665932579737,0.0127));
#602=CARTESIAN_POINT('',(0.0415177916412428,-0.0158665932579737,1.04083408558608E-17));
#603=CARTESIAN_POINT('',(0.0413785303806221,-0.0160377383886895,0.0127));
#604=CARTESIAN_POINT('',(0.0413785303806221,-0.0160377383886895,1.04083408558608E-17));
#605=CARTESIAN_POINT('',(0.0410347717451928,-0.016393860601896,0.0127));
#606=CARTESIAN_POINT('',(0.0410347717451928,-0.016393860601896,1.04083408558608E-17));
#607=CARTESIAN_POINT('',(0.0403119040828722,-0.0169399667468105,0.0127));
#608=CARTESIAN_POINT('',(0.0403119040828722,-0.0169399667468105,8.67361737988404E-18));
#609=CARTESIAN_POINT('',(0.0393104394252706,-0.017492250128154,0.0127));
#610=CARTESIAN_POINT('',(0.0393104394252706,-0.017492250128154,1.73472347597681E-17));
#611=CARTESIAN_POINT('',(0.0379208007708177,-0.0180648468359436,0.0127));
#612=CARTESIAN_POINT('',(0.0379208007708177,-0.0180648468359436,1.04083408558608E-17));
#613=CARTESIAN_POINT('',(0.0358258610832939,-0.018749501437414,0.0127));
#614=CARTESIAN_POINT('',(0.0358258610832939,-0.018749501437414,1.38777878078145E-17));
#615=CARTESIAN_POINT('',(0.0328239511389203,-0.0194731921286538,0.0127));
#616=CARTESIAN_POINT('',(0.0328239511389203,-0.0194731921286538,8.67361737988404E-18));
#617=CARTESIAN_POINT('',(0.0289338039879267,-0.020095325505707,0.0127));
#618=CARTESIAN_POINT('',(0.0289338039879267,-0.020095325505707,1.73472347597681E-17));
#619=CARTESIAN_POINT('',(0.025114699446622,-0.0204056530980729,0.0127));
#620=CARTESIAN_POINT('',(0.025114699446622,-0.0204056530980729,1.04083408558608E-17));
#621=CARTESIAN_POINT('',(0.0217066753603574,-0.0203256961925811,0.0127));
#622=CARTESIAN_POINT('',(0.0217066753603574,-0.0203256961925811,1.38777878078145E-17));
#623=CARTESIAN_POINT('',(0.0186308509413888,-0.01985047354991,0.0127));
#624=CARTESIAN_POINT('',(0.0186308509413888,-0.01985047354991,1.38777878078145E-17));
#625=CARTESIAN_POINT('',(0.0158287756871555,-0.0189809172155593,0.0127));
#626=CARTESIAN_POINT('',(0.0158287756871555,-0.0189809172155593,1.04083408558608E-17));
#627=CARTESIAN_POINT('',(0.013265150987681,-0.0177461943072566,0.0127));
#628=CARTESIAN_POINT('',(0.013265150987681,-0.0177461943072566,1.38777878078145E-17));
#629=CARTESIAN_POINT('',(0.0108512163825929,-0.0161839175278155,0.0127));
#630=CARTESIAN_POINT('',(0.0108512163825929,-0.0161839175278155,1.21430643318376E-17));
#631=CARTESIAN_POINT('',(0.00863926611325254,-0.0143435862374745,0.0127));
#632=CARTESIAN_POINT('',(0.00863926611325254,-0.0143435862374745,8.67361737988404E-18));
#633=CARTESIAN_POINT('',(0.00708810492386837,-0.0126273119150942,0.0127));
#634=CARTESIAN_POINT('',(0.00708810492386837,-0.0126273119150942,6.93889390390723E-18));
#635=CARTESIAN_POINT('',(0.0060967213579936,-0.0111531959539888,0.0127));
#636=CARTESIAN_POINT('',(0.0060967213579936,-0.0111531959539888,1.38777878078145E-17));
#637=CARTESIAN_POINT('',(0.00529639936046527,-0.0095743820290132,0.0127));
#638=CARTESIAN_POINT('',(0.00529639936046527,-0.0095743820290132,6.93889390390723E-18));
#639=CARTESIAN_POINT('',(0.00481975110227474,-0.0075787483827782,0.0127));
#640=CARTESIAN_POINT('',(0.00481975110227474,-0.0075787483827782,1.04083408558608E-17));
#641=CARTESIAN_POINT('',(0.00480769550970875,-0.0054360910804181,0.0127));
#642=CARTESIAN_POINT('',(0.00480769550970875,-0.0054360910804181,1.04083408558608E-17));
#643=CARTESIAN_POINT('',(0.00491005831597193,-0.00422067855319529,0.0127));
#644=CARTESIAN_POINT('',(0.00491005831597193,-0.00422067855319529,1.04083408558608E-17));
#645=CARTESIAN_POINT('',(0.00495334936999075,-0.00362268160580811,0.0127));
#646=CARTESIAN_POINT('',(0.00495334936999075,-0.00362268160580811,1.04083408558608E-17));
#647=CARTESIAN_POINT('',(0.0415177916412428,-0.0158665932579737,0.));
#648=CARTESIAN_POINT('',(0.0414481610109324,-0.0159521658233316,0.));
#649=CARTESIAN_POINT('',(0.0413335167078027,-0.0160827344450279,0.));
#650=CARTESIAN_POINT('',(0.0411611288490972,-0.0162545332341376,0.));
#651=CARTESIAN_POINT('',(0.0409872914141896,-0.0164140439039216,0.));
#652=CARTESIAN_POINT('',(0.0407640272207075,-0.016597338444649,0.));
#653=CARTESIAN_POINT('',(0.0403955500236466,-0.0168638045767646,0.));
#654=CARTESIAN_POINT('',(0.0399113485807268,-0.0171603204448035,0.));
#655=CARTESIAN_POINT('',(0.0392868884210195,-0.0174811771961556,0.));
#656=CARTESIAN_POINT('',(0.0386158532214874,-0.0177783281896755,0.));
#657=CARTESIAN_POINT('',(0.0376588159225243,-0.0181505433126469,0.));
#658=CARTESIAN_POINT('',(0.0363494868741355,-0.0185784073852383,0.));
#659=CARTESIAN_POINT('',(0.0346256526683177,-0.0190385756589573,0.));
#660=CARTESIAN_POINT('',(0.0327878611322632,-0.019442499699785,0.));
#661=CARTESIAN_POINT('',(0.0308787544184064,-0.019784282861391,0.));
#662=CARTESIAN_POINT('',(0.0282973602504974,-0.020147033526025,0.));
#663=CARTESIAN_POINT('',(0.025114651996614,-0.0204056520827063,0.));
#664=CARTESIAN_POINT('',(0.0217067672470419,-0.0203257159450656,0.));
#665=CARTESIAN_POINT('',(0.0186305308446586,-0.0198503955553386,0.));
#666=CARTESIAN_POINT('',(0.0162967252969362,-0.01912607379369,0.));
#667=CARTESIAN_POINT('',(0.014545340635429,-0.0183631564199923,0.));
#668=CARTESIAN_POINT('',(0.0132833271473764,-0.017705019977963,0.));
#669=CARTESIAN_POINT('',(0.012061946795538,-0.016966375640557,0.));
#670=CARTESIAN_POINT('',(0.010480419897905,-0.0158764469993403,0.));
#671=CARTESIAN_POINT('',(0.00900783879512364,-0.0146502697543764,0.));
#672=CARTESIAN_POINT('',(0.00770925389485474,-0.0133140759441721,0.));
#673=CARTESIAN_POINT('',(0.00684036855166595,-0.0122595007383078,0.));
#674=CARTESIAN_POINT('',(0.00621972708002422,-0.0113349754563041,0.));
#675=CARTESIAN_POINT('',(0.00579822970773391,-0.0105654701565061,0.));
#676=CARTESIAN_POINT('',(0.00552266492081554,-0.00996778806847735,0.));
#677=CARTESIAN_POINT('',(0.00529949146357596,-0.00936904413512083,0.));
#678=CARTESIAN_POINT('',(0.00506754954223774,-0.00857785885792169,0.));
#679=CARTESIAN_POINT('',(0.00489026099327975,-0.00761091040702745,0.));
#680=CARTESIAN_POINT('',(0.00481437770576272,-0.00650970319358075,0.));
#681=CARTESIAN_POINT('',(0.00482753961703147,-0.00547797142985524,0.));
#682=CARTESIAN_POINT('',(0.00488723668632465,-0.00451449608103283,0.));
#683=CARTESIAN_POINT('',(0.00493170384298134,-0.0039216800795017,0.));
#684=CARTESIAN_POINT('',(0.00495334936999075,-0.00362268160580811,0.));
#685=CARTESIAN_POINT('',(0.0415177916412428,-0.0158665932579737,0.0127));
#686=CARTESIAN_POINT('',(0.0414481610109324,-0.0159521658233316,0.0127));
#687=CARTESIAN_POINT('',(0.0413335167078027,-0.0160827344450279,0.0127));
#688=CARTESIAN_POINT('',(0.0411611288490972,-0.0162545332341376,0.0127));
#689=CARTESIAN_POINT('',(0.0409872914141896,-0.0164140439039216,0.0127));
#690=CARTESIAN_POINT('',(0.0407640272207075,-0.016597338444649,0.0127));
#691=CARTESIAN_POINT('',(0.0403955500236466,-0.0168638045767646,0.0127));
#692=CARTESIAN_POINT('',(0.0399113485807268,-0.0171603204448035,0.0127));
#693=CARTESIAN_POINT('',(0.0392868884210195,-0.0174811771961556,0.0127));
#694=CARTESIAN_POINT('',(0.0386158532214874,-0.0177783281896755,0.0127));
#695=CARTESIAN_POINT('',(0.0376588159225243,-0.0181505433126469,0.0127));
#696=CARTESIAN_POINT('',(0.0363494868741355,-0.0185784073852383,0.0127));
#697=CARTESIAN_POINT('',(0.0346256526683177,-0.0190385756589573,0.0127));
#698=CARTESIAN_POINT('',(0.0327878611322632,-0.019442499699785,0.0127));
#699=CARTESIAN_POINT('',(0.0308787544184064,-0.019784282861391,0.0127));
#700=CARTESIAN_POINT('',(0.0282973602504974,-0.020147033526025,0.0127));
#701=CARTESIAN_POINT('',(0.025114651996614,-0.0204056520827063,0.0127));
#702=CARTESIAN_POINT('',(0.0217067672470419,-0.0203257159450656,0.0127));
#703=CARTESIAN_POINT('',(0.0186305308446586,-0.0198503955553386,0.0127));
#704=CARTESIAN_POINT('',(0.0162967252969362,-0.01912607379369,0.0127));
#705=CARTESIAN_POINT('',(0.014545340635429,-0.0183631564199923,0.0127));
#706=CARTESIAN_POINT('',(0.0132833271473764,-0.017705019977963,0.0127));
#707=CARTESIAN_POINT('',(0.012061946795538,-0.016966375640557,0.0127));
#708=CARTESIAN_POINT('',(0.010480419897905,-0.0158764469993403,0.0127));
#709=CARTESIAN_POINT('',(0.00900783879512364,-0.0146502697543764,0.0127));
#710=CARTESIAN_POINT('',(0.00770925389485474,-0.0133140759441721,0.0127));
#711=CARTESIAN_POINT('',(0.00684036855166595,-0.0122595007383078,0.0127));
#712=CARTESIAN_POINT('',(0.00621972708002422,-0.0113349754563041,0.0127));
#713=CARTESIAN_POINT('',(0.00579822970773391,-0.0105654701565061,0.0127));
#714=CARTESIAN_POINT('',(0.00552266492081554,-0.00996778806847735,0.0127));
#715=CARTESIAN_POINT('',(0.00529949146357596,-0.00936904413512083,0.0127));
#716=CARTESIAN_POINT('',(0.00506754954223774,-0.00857785885792169,0.0127));
#717=CARTESIAN_POINT('',(0.00489026099327975,-0.00761091040702745,0.0127));
#718=CARTESIAN_POINT('',(0.00481437770576272,-0.00650970319358075,0.0127));
#719=CARTESIAN_POINT('',(0.00482753961703147,-0.00547797142985524,0.0127));
#720=CARTESIAN_POINT('',(0.00488723668632465,-0.00451449608103283,0.0127));
#721=CARTESIAN_POINT('',(0.00493170384298134,-0.0039216800795017,0.0127));
#722=CARTESIAN_POINT('',(0.00495334936999075,-0.00362268160580811,0.0127));
#723=CARTESIAN_POINT('',(0.056947848072104,0.00574872733440837,0.0127));
#724=CARTESIAN_POINT('',(0.056947848072104,0.00574872733440837,-0.002));
#725=CARTESIAN_POINT('',(0.056947848072104,0.00574872733440837,0.0127));
#726=CARTESIAN_POINT('',(0.0208149509022236,0.00827838746087581,0.0127));
#727=CARTESIAN_POINT('',(0.0604369644549687,-0.0285102750661438,0.));
#728=CARTESIAN_POINT('',(0.0544091569636602,0.0122721503205337,0.));
#729=CARTESIAN_POINT('',(0.04338924219067,0.00798357977873349,0.));
#730=CARTESIAN_POINT('',(0.0777461432752302,0.0213541000535294,0.));
#731=CARTESIAN_POINT('',(5.36751955821316E-5,-0.00205609306179361,0.));
#732=CARTESIAN_POINT('',(0.000237330869927583,-0.00175428171925789,0.));
#733=CARTESIAN_POINT('',(0.0006054164429537,-0.00114969060526981,0.));
#734=CARTESIAN_POINT('',(0.0011528994564816,-0.00024861450778757,0.));
#735=CARTESIAN_POINT('',(0.00173989217928273,0.000709930913586182,0.));
#736=CARTESIAN_POINT('',(0.00238341749805106,0.00172689961668354,0.));
#737=CARTESIAN_POINT('',(0.00309401274001533,0.00278837739712586,0.));
#738=CARTESIAN_POINT('',(0.00414939521611917,0.00424886215102676,0.));
#739=CARTESIAN_POINT('',(0.00540328707476586,0.00575666509153088,0.));
#740=CARTESIAN_POINT('',(0.00690277144150142,0.00723066811031191,0.));
#741=CARTESIAN_POINT('',(0.00816021939310405,0.00829858523984483,0.));
#742=CARTESIAN_POINT('',(0.00932312809198414,0.00913632394036606,0.));
#743=CARTESIAN_POINT('',(0.0103104831575371,0.00975881536190481,0.));
#744=CARTESIAN_POINT('',(0.0113178239670119,0.0103387340357946,0.));
#745=CARTESIAN_POINT('',(0.0126069857289834,0.0109877485017509,0.));
#746=CARTESIAN_POINT('',(0.014735666692809,0.0118842349224149,0.));
#747=CARTESIAN_POINT('',(0.017503017384027,0.0127541173077951,0.));
#748=CARTESIAN_POINT('',(0.0209562114317142,0.0134231474911167,0.));
#749=CARTESIAN_POINT('',(0.0239096976815856,0.0136638247572837,0.));
#750=CARTESIAN_POINT('',(0.0262998582950269,0.0136517990939227,0.));
#751=CARTESIAN_POINT('',(0.0280987802506461,0.0135351969701861,0.));
#752=CARTESIAN_POINT('',(0.0299061496006136,0.0133003899108862,0.));
#753=CARTESIAN_POINT('',(0.0316549371685158,0.0129554501224787,0.));
#754=CARTESIAN_POINT('',(0.0333362546664932,0.0125175665625601,0.));
#755=CARTESIAN_POINT('',(0.0354877862147414,0.0118294054600176,0.));
#756=CARTESIAN_POINT('',(0.0380161647868921,0.0108084726349007,0.));
#757=CARTESIAN_POINT('',(0.0408139165137077,0.00943041642557158,0.));
#758=CARTESIAN_POINT('',(0.0425490712909562,0.00846555203561513,0.));
#759=CARTESIAN_POINT('',(0.04338924219067,0.0079835797787335,0.));
#760=CARTESIAN_POINT('',(5.36751955821325E-5,-0.00205609306179361,0.));
#761=CARTESIAN_POINT('',(0.0418150893113539,-0.0218012527571451,0.));
#762=CARTESIAN_POINT('',(0.0415132711358885,-0.0219548963570117,0.));
#763=CARTESIAN_POINT('',(0.0409175147396183,-0.0222343831654475,0.));
#764=CARTESIAN_POINT('',(0.0397261654086484,-0.0227230759979127,0.));
#765=CARTESIAN_POINT('',(0.0382068412868544,-0.0232428179486007,0.));
#766=CARTESIAN_POINT('',(0.0362992332383349,-0.0237762554074913,0.));
#767=CARTESIAN_POINT('',(0.0336453266562425,-0.024389061746274,0.));
#768=CARTESIAN_POINT('',(0.0308664408579182,-0.0248623145428347,0.));
#769=CARTESIAN_POINT('',(0.028076391788565,-0.0251788323063315,0.));
#770=CARTESIAN_POINT('',(0.0260016491307048,-0.0253283283873431,0.));
#771=CARTESIAN_POINT('',(0.0239720917208562,-0.0253758642592969,0.));
#772=CARTESIAN_POINT('',(0.0220087748033691,-0.0253117879601828,0.));
#773=CARTESIAN_POINT('',(0.0200995675494907,-0.0251308453940623,0.));
#774=CARTESIAN_POINT('',(0.0182459945501629,-0.0248283629421213,0.));
#775=CARTESIAN_POINT('',(0.0164485994929104,-0.0244006903239405,0.));
#776=CARTESIAN_POINT('',(0.0141442248338348,-0.0236699418892959,0.));
#777=CARTESIAN_POINT('',(0.0119857508144374,-0.0227077867016148,0.));
#778=CARTESIAN_POINT('',(0.00999968464990199,-0.0215777976516716,0.));
#779=CARTESIAN_POINT('',(0.00809185253806632,-0.0203369347343374,0.));
#780=CARTESIAN_POINT('',(0.006277789246765,-0.018918185406982,0.));
#781=CARTESIAN_POINT('',(0.00460178598337183,-0.0173156241486292,0.));
#782=CARTESIAN_POINT('',(0.00341999042240261,-0.0160040501531459,0.));
#783=CARTESIAN_POINT('',(0.002510233420182,-0.0147978585895904,0.));
#784=CARTESIAN_POINT('',(0.00184143449262804,-0.0137452064963759,0.));
#785=CARTESIAN_POINT('',(0.00137250427833129,-0.0129007009500296,0.));
#786=CARTESIAN_POINT('',(0.00101751538721733,-0.0121459066702132,0.));
#787=CARTESIAN_POINT('',(0.000765444221716509,-0.0115222481617557,0.));
#788=CARTESIAN_POINT('',(0.000541837925291317,-0.0109047944245912,0.));
#789=CARTESIAN_POINT('',(0.000310031136557,-0.0101386894333585,0.));
#790=CARTESIAN_POINT('',(3.51354913618256E-5,-0.0089428217871567,0.));
#791=CARTESIAN_POINT('',(-0.000147441197766377,-0.0075369113410316,0.));
#792=CARTESIAN_POINT('',(-0.000184515602281113,-0.00630562039452303,0.));
#793=CARTESIAN_POINT('',(-0.000168345883427777,-0.00543173717790483,0.));
#794=CARTESIAN_POINT('',(-0.000141696643766659,-0.00483503061930936,0.));
#795=CARTESIAN_POINT('',(-0.000108218078530712,-0.00429813496856296,0.));
#796=CARTESIAN_POINT('',(-8.03165270651879E-5,-0.00390296839324296,0.));
#797=CARTESIAN_POINT('',(-5.82486148827917E-5,-0.00359934044014178,0.));
#798=CARTESIAN_POINT('',(-4.21452978467874E-5,-0.00337967924823888,0.));
#799=CARTESIAN_POINT('',(-2.64227963363245E-5,-0.00316252480003181,0.));
#800=CARTESIAN_POINT('',(-4.98560238746905E-6,-0.00286639530789679,0.));
#801=CARTESIAN_POINT('',(2.16472217816267E-5,-0.00249850967274488,0.));
#802=CARTESIAN_POINT('',(4.30033609696959E-5,-0.00220350745642772,0.));
#803=CARTESIAN_POINT('',(5.36751955821308E-5,-0.00205609306179361,0.));
#804=CARTESIAN_POINT('',(0.0418150893113541,-0.0218012527571452,0.));
#805=CARTESIAN_POINT('',(0.0798592713169265,-0.0333400068316419,0.));
#806=CARTESIAN_POINT('',(0.0791488827200089,-0.0332588636315444,0.));
#807=CARTESIAN_POINT('',(0.0777280409797143,-0.0330965735683435,0.));
#808=CARTESIAN_POINT('',(0.075597165648028,-0.0328531604515767,0.));
#809=CARTESIAN_POINT('',(0.0738203066419194,-0.0326502520850038,0.));
#810=CARTESIAN_POINT('',(0.0724007964048849,-0.0324879415954241,0.));
#811=CARTESIAN_POINT('',(0.0709805666074068,-0.032326273062073,0.));
#812=CARTESIAN_POINT('',(0.0691577834360059,-0.0321153706220842,0.));
#813=CARTESIAN_POINT('',(0.0661170874129926,-0.0317202817134684,0.));
#814=CARTESIAN_POINT('',(0.0628920591625552,-0.0311768518729641,0.));
#815=CARTESIAN_POINT('',(0.059494618084132,-0.0303539722848556,0.));
#816=CARTESIAN_POINT('',(0.05730659961088,-0.0296965911737061,0.));
#817=CARTESIAN_POINT('',(0.0555221252465027,-0.0290699701162374,0.));
#818=CARTESIAN_POINT('',(0.0541688785771447,-0.0285465375259727,0.));
#819=CARTESIAN_POINT('',(0.0528028731382799,-0.0279675184964881,0.));
#820=CARTESIAN_POINT('',(0.0514176919617833,-0.0273249377768881,0.));
#821=CARTESIAN_POINT('',(0.0500486435521721,-0.026635339933788,0.));
#822=CARTESIAN_POINT('',(0.0487195202855363,-0.0259211753181968,0.));
#823=CARTESIAN_POINT('',(0.0474294120489753,-0.0251937387308777,0.));
#824=CARTESIAN_POINT('',(0.0457667769393898,-0.0242213024925419,0.));
#825=CARTESIAN_POINT('',(0.0438129781556113,-0.0230318275222869,0.));
#826=CARTESIAN_POINT('',(0.0424370529847891,-0.0221808432096699,0.));
#827=CARTESIAN_POINT('',(0.0418150893113541,-0.0218012527571452,0.));
#828=CARTESIAN_POINT('',(0.0798592713169265,-0.0333400068316419,0.));
#829=CARTESIAN_POINT('',(0.0788348710415616,-0.00682544782317358,0.));
#830=CARTESIAN_POINT('',(0.0604369644549687,-0.0285102750661438,-0.002));
#831=CARTESIAN_POINT('',(0.0544091569636602,0.0122721503205337,-0.002));
#832=CARTESIAN_POINT('',(0.04338924219067,0.00798357977873349,-0.002));
#833=CARTESIAN_POINT('',(0.0777461432752302,0.0213541000535294,-0.002));
#834=CARTESIAN_POINT('',(0.0788348710415616,-0.00682544782317358,-0.002));
#835=CARTESIAN_POINT('',(0.0798592713169265,-0.0333400068316419,-0.002));
#836=CARTESIAN_POINT('',(0.0798592713169265,-0.0333400068316419,-0.002));
#837=CARTESIAN_POINT('',(0.0791488827200089,-0.0332588636315444,-0.002));
#838=CARTESIAN_POINT('',(0.0777280409797143,-0.0330965735683435,-0.002));
#839=CARTESIAN_POINT('',(0.075597165648028,-0.0328531604515767,-0.002));
#840=CARTESIAN_POINT('',(0.0738203066419194,-0.0326502520850038,-0.002));
#841=CARTESIAN_POINT('',(0.0724007964048849,-0.0324879415954241,-0.002));
#842=CARTESIAN_POINT('',(0.0709805666074068,-0.032326273062073,-0.002));
#843=CARTESIAN_POINT('',(0.0691577834360059,-0.0321153706220842,-0.002));
#844=CARTESIAN_POINT('',(0.0661170874129926,-0.0317202817134684,-0.002));
#845=CARTESIAN_POINT('',(0.0628920591625552,-0.0311768518729641,-0.002));
#846=CARTESIAN_POINT('',(0.059494618084132,-0.0303539722848556,-0.002));
#847=CARTESIAN_POINT('',(0.05730659961088,-0.0296965911737061,-0.002));
#848=CARTESIAN_POINT('',(0.0555221252465027,-0.0290699701162374,-0.002));
#849=CARTESIAN_POINT('',(0.0541688785771447,-0.0285465375259727,-0.002));
#850=CARTESIAN_POINT('',(0.0528028731382799,-0.0279675184964881,-0.002));
#851=CARTESIAN_POINT('',(0.0514176919617833,-0.0273249377768881,-0.002));
#852=CARTESIAN_POINT('',(0.0500486435521721,-0.026635339933788,-0.002));
#853=CARTESIAN_POINT('',(0.0487195202855363,-0.0259211753181968,-0.002));
#854=CARTESIAN_POINT('',(0.0474294120489753,-0.0251937387308777,-0.002));
#855=CARTESIAN_POINT('',(0.0457667769393898,-0.0242213024925419,-0.002));
#856=CARTESIAN_POINT('',(0.0438129781556113,-0.0230318275222869,-0.002));
#857=CARTESIAN_POINT('',(0.0424370529847891,-0.0221808432096699,-0.002));
#858=CARTESIAN_POINT('',(0.0418150893113541,-0.0218012527571452,-0.002));
#859=CARTESIAN_POINT('',(0.0418150893113541,-0.0218012527571452,-0.002));
#860=CARTESIAN_POINT('',(0.0418150893113539,-0.0218012527571451,-0.002));
#861=CARTESIAN_POINT('',(0.0415132711358885,-0.0219548963570117,-0.002));
#862=CARTESIAN_POINT('',(0.0409175147396183,-0.0222343831654475,-0.002));
#863=CARTESIAN_POINT('',(0.0397261654086484,-0.0227230759979127,-0.002));
#864=CARTESIAN_POINT('',(0.0382068412868544,-0.0232428179486007,-0.002));
#865=CARTESIAN_POINT('',(0.0362992332383349,-0.0237762554074913,-0.002));
#866=CARTESIAN_POINT('',(0.0336453266562425,-0.024389061746274,-0.002));
#867=CARTESIAN_POINT('',(0.0308664408579182,-0.0248623145428347,-0.002));
#868=CARTESIAN_POINT('',(0.028076391788565,-0.0251788323063315,-0.002));
#869=CARTESIAN_POINT('',(0.0260016491307048,-0.0253283283873431,-0.002));
#870=CARTESIAN_POINT('',(0.0239720917208562,-0.0253758642592969,-0.002));
#871=CARTESIAN_POINT('',(0.0220087748033691,-0.0253117879601828,-0.002));
#872=CARTESIAN_POINT('',(0.0200995675494907,-0.0251308453940623,-0.002));
#873=CARTESIAN_POINT('',(0.0182459945501629,-0.0248283629421213,-0.002));
#874=CARTESIAN_POINT('',(0.0164485994929104,-0.0244006903239405,-0.002));
#875=CARTESIAN_POINT('',(0.0141442248338348,-0.0236699418892959,-0.002));
#876=CARTESIAN_POINT('',(0.0119857508144374,-0.0227077867016148,-0.002));
#877=CARTESIAN_POINT('',(0.00999968464990199,-0.0215777976516716,-0.002));
#878=CARTESIAN_POINT('',(0.00809185253806632,-0.0203369347343374,-0.002));
#879=CARTESIAN_POINT('',(0.006277789246765,-0.018918185406982,-0.002));
#880=CARTESIAN_POINT('',(0.00460178598337183,-0.0173156241486292,-0.002));
#881=CARTESIAN_POINT('',(0.00341999042240261,-0.0160040501531459,-0.002));
#882=CARTESIAN_POINT('',(0.002510233420182,-0.0147978585895904,-0.002));
#883=CARTESIAN_POINT('',(0.00184143449262804,-0.0137452064963759,-0.002));
#884=CARTESIAN_POINT('',(0.00137250427833129,-0.0129007009500296,-0.002));
#885=CARTESIAN_POINT('',(0.00101751538721733,-0.0121459066702132,-0.002));
#886=CARTESIAN_POINT('',(0.000765444221716509,-0.0115222481617557,-0.002));
#887=CARTESIAN_POINT('',(0.000541837925291317,-0.0109047944245912,-0.002));
#888=CARTESIAN_POINT('',(0.000310031136557,-0.0101386894333585,-0.002));
#889=CARTESIAN_POINT('',(3.51354913618256E-5,-0.0089428217871567,-0.002));
#890=CARTESIAN_POINT('',(-0.000147441197766377,-0.0075369113410316,-0.002));
#891=CARTESIAN_POINT('',(-0.000184515602281113,-0.00630562039452303,-0.002));
#892=CARTESIAN_POINT('',(-0.000168345883427777,-0.00543173717790483,-0.002));
#893=CARTESIAN_POINT('',(-0.000141696643766659,-0.00483503061930936,-0.002));
#894=CARTESIAN_POINT('',(-0.000108218078530712,-0.00429813496856296,-0.002));
#895=CARTESIAN_POINT('',(-8.03165270651879E-5,-0.00390296839324296,-0.002));
#896=CARTESIAN_POINT('',(-5.82486148827917E-5,-0.00359934044014178,-0.002));
#897=CARTESIAN_POINT('',(-4.21452978467874E-5,-0.00337967924823888,-0.002));
#898=CARTESIAN_POINT('',(-2.64227963363245E-5,-0.00316252480003181,-0.002));
#899=CARTESIAN_POINT('',(-4.98560238746905E-6,-0.00286639530789679,-0.002));
#900=CARTESIAN_POINT('',(2.16472217816267E-5,-0.00249850967274488,-0.002));
#901=CARTESIAN_POINT('',(4.30033609696959E-5,-0.00220350745642772,-0.002));
#902=CARTESIAN_POINT('',(5.36751955821308E-5,-0.00205609306179361,-0.002));
#903=CARTESIAN_POINT('',(5.36751955821325E-5,-0.00205609306179361,-0.002));
#904=CARTESIAN_POINT('',(5.36751955821316E-5,-0.00205609306179361,-0.002));
#905=CARTESIAN_POINT('',(0.000237330869927583,-0.00175428171925789,-0.002));
#906=CARTESIAN_POINT('',(0.0006054164429537,-0.00114969060526981,-0.002));
#907=CARTESIAN_POINT('',(0.0011528994564816,-0.00024861450778757,-0.002));
#908=CARTESIAN_POINT('',(0.00173989217928273,0.000709930913586182,-0.002));
#909=CARTESIAN_POINT('',(0.00238341749805106,0.00172689961668354,-0.002));
#910=CARTESIAN_POINT('',(0.00309401274001533,0.00278837739712586,-0.002));
#911=CARTESIAN_POINT('',(0.00414939521611917,0.00424886215102676,-0.002));
#912=CARTESIAN_POINT('',(0.00540328707476586,0.00575666509153088,-0.002));
#913=CARTESIAN_POINT('',(0.00690277144150142,0.00723066811031191,-0.002));
#914=CARTESIAN_POINT('',(0.00816021939310405,0.00829858523984483,-0.002));
#915=CARTESIAN_POINT('',(0.00932312809198414,0.00913632394036606,-0.002));
#916=CARTESIAN_POINT('',(0.0103104831575371,0.00975881536190481,-0.002));
#917=CARTESIAN_POINT('',(0.0113178239670119,0.0103387340357946,-0.002));
#918=CARTESIAN_POINT('',(0.0126069857289834,0.0109877485017509,-0.002));
#919=CARTESIAN_POINT('',(0.014735666692809,0.0118842349224149,-0.002));
#920=CARTESIAN_POINT('',(0.017503017384027,0.0127541173077951,-0.002));
#921=CARTESIAN_POINT('',(0.0209562114317142,0.0134231474911167,-0.002));
#922=CARTESIAN_POINT('',(0.0239096976815856,0.0136638247572837,-0.002));
#923=CARTESIAN_POINT('',(0.0262998582950269,0.0136517990939227,-0.002));
#924=CARTESIAN_POINT('',(0.0280987802506461,0.0135351969701861,-0.002));
#925=CARTESIAN_POINT('',(0.0299061496006136,0.0133003899108862,-0.002));
#926=CARTESIAN_POINT('',(0.0316549371685158,0.0129554501224787,-0.002));
#927=CARTESIAN_POINT('',(0.0333362546664932,0.0125175665625601,-0.002));
#928=CARTESIAN_POINT('',(0.0354877862147414,0.0118294054600176,-0.002));
#929=CARTESIAN_POINT('',(0.0380161647868921,0.0108084726349007,-0.002));
#930=CARTESIAN_POINT('',(0.0408139165137077,0.00943041642557158,-0.002));
#931=CARTESIAN_POINT('',(0.0425490712909562,0.00846555203561513,-0.002));
#932=CARTESIAN_POINT('',(0.04338924219067,0.0079835797787335,-0.002));
#933=CARTESIAN_POINT('',(0.0544091569636602,0.0122721503205337,-0.002));
#934=CARTESIAN_POINT('',(0.0777461432752302,0.0213541000535294,-0.002));
#935=CARTESIAN_POINT('',(0.04338924219067,0.00798357977873349,-0.002));
#936=CARTESIAN_POINT('',(0.0788348710415616,-0.00682544782317358,-0.002));
#937=CARTESIAN_POINT('',(0.0798592713169265,-0.0333400068316419,-0.002));
#938=CARTESIAN_POINT('',(0.0798592713169265,-0.0333400068316419,-0.002));
#939=CARTESIAN_POINT('',(0.0798592713169265,-0.0333400068316419,0.));
#940=CARTESIAN_POINT('',(0.0784384941230913,-0.0331777204314468,-0.002));
#941=CARTESIAN_POINT('',(0.0784384941230913,-0.0331777204314468,0.));
#942=CARTESIAN_POINT('',(0.0755869213378708,-0.0328514797118832,-0.002));
#943=CARTESIAN_POINT('',(0.0755869213378708,-0.0328514797118832,4.33680868994202E-19));
#944=CARTESIAN_POINT('',(0.0713696725453392,-0.032372126147578,-0.002));
#945=CARTESIAN_POINT('',(0.0713696725453392,-0.032372126147578,0.));
#946=CARTESIAN_POINT('',(0.066929134451609,-0.0318566301609493,-0.002));
#947=CARTESIAN_POINT('',(0.066929134451609,-0.0318566301609493,8.67361737988404E-19));
#948=CARTESIAN_POINT('',(0.0620851920469882,-0.0310415063864145,-0.002));
#949=CARTESIAN_POINT('',(0.0620851920469882,-0.0310415063864145,0.));
#950=CARTESIAN_POINT('',(0.0577642689279494,-0.0298939271270794,-0.002));
#951=CARTESIAN_POINT('',(0.0577642689279494,-0.0298939271270794,0.));
#952=CARTESIAN_POINT('',(0.0541802056832064,-0.0285772585798538,-0.002));
#953=CARTESIAN_POINT('',(0.0541802056832064,-0.0285772585798538,-4.33680868994202E-19));
#954=CARTESIAN_POINT('',(0.0514114368437721,-0.0273498444069282,-0.002));
#955=CARTESIAN_POINT('',(0.0514114368437721,-0.0273498444069282,0.));
#956=CARTESIAN_POINT('',(0.0486963314792906,-0.0259259733302616,-0.002));
#957=CARTESIAN_POINT('',(0.0486963314792906,-0.0259259733302616,0.));
#958=CARTESIAN_POINT('',(0.0453137214833803,-0.0239713985025505,-0.002));
#959=CARTESIAN_POINT('',(0.0453137214833803,-0.0239713985025505,8.67361737988404E-19));
#960=CARTESIAN_POINT('',(0.0430590166582241,-0.0225604336621945,-0.002));
#961=CARTESIAN_POINT('',(0.0430590166582241,-0.0225604336621945,-4.33680868994202E-19));
#962=CARTESIAN_POINT('',(0.0418150893113542,-0.0218012527571453,-0.002));
#963=CARTESIAN_POINT('',(0.0418150893113542,-0.0218012527571453,-4.33680868994202E-19));
#964=CARTESIAN_POINT('',(0.0418150893113541,-0.0218012527571452,-0.002));
#965=CARTESIAN_POINT('',(0.0418150893113539,-0.0218012527571451,-0.002));
#966=CARTESIAN_POINT('',(0.0418150893113539,-0.0218012527571451,0.));
#967=CARTESIAN_POINT('',(0.0406078166094923,-0.0224158271566116,-0.002));
#968=CARTESIAN_POINT('',(0.0406078166094923,-0.0224158271566116,0.));
#969=CARTESIAN_POINT('',(0.0382586789796333,-0.0232773606462392,-0.002));
#970=CARTESIAN_POINT('',(0.0382586789796333,-0.0232773606462392,1.30104260698261E-18));
#971=CARTESIAN_POINT('',(0.0343395272758047,-0.0242721518129147,-0.002));
#972=CARTESIAN_POINT('',(0.0343395272758047,-0.0242721518129147,4.33680868994202E-19));
#973=CARTESIAN_POINT('',(0.0301735421196255,-0.0249794163004611,-0.002));
#974=CARTESIAN_POINT('',(0.0301735421196255,-0.0249794163004611,-8.67361737988404E-19));
#975=CARTESIAN_POINT('',(0.024574544831669,-0.0255141670611297,-0.002));
#976=CARTESIAN_POINT('',(0.024574544831669,-0.0255141670611297,0.));
#977=CARTESIAN_POINT('',(0.0193941777642954,-0.0252191856002495,-0.002));
#978=CARTESIAN_POINT('',(0.0193941777642954,-0.0252191856002495,-8.67361737988404E-19));
#979=CARTESIAN_POINT('',(0.0146826253260921,-0.0239103771775248,-0.002));
#980=CARTESIAN_POINT('',(0.0146826253260921,-0.0239103771775248,8.67361737988404E-19));
#981=CARTESIAN_POINT('',(0.0114480703523484,-0.0224665784065563,-0.002));
#982=CARTESIAN_POINT('',(0.0114480703523484,-0.0224665784065563,0.));
#983=CARTESIAN_POINT('',(0.00854670283176641,-0.0206911288998931,-0.002));
#984=CARTESIAN_POINT('',(0.00854670283176641,-0.0206911288998931,-4.33680868994202E-19));
#985=CARTESIAN_POINT('',(0.00582486612700448,-0.0185628655708865,-0.002));
#986=CARTESIAN_POINT('',(0.00582486612700448,-0.0185628655708865,4.33680868994202E-19));
#987=CARTESIAN_POINT('',(0.00378380540422571,-0.0164861220996687,-0.002));
#988=CARTESIAN_POINT('',(0.00378380540422571,-0.0164861220996687,0.));
#989=CARTESIAN_POINT('',(0.00232919189335287,-0.0145566296254651,-0.002));
#990=CARTESIAN_POINT('',(0.00232919189335287,-0.0145566296254651,0.));
#991=CARTESIAN_POINT('',(0.00135078586695338,-0.0129340564935575,-0.002));
#992=CARTESIAN_POINT('',(0.00135078586695338,-0.0129340564935575,-8.67361737988404E-19));
#993=CARTESIAN_POINT('',(0.000545633853781311,-0.011050102511049,-0.002));
#994=CARTESIAN_POINT('',(0.000545633853781311,-0.011050102511049,0.));
#995=CARTESIAN_POINT('',(-8.56164218923485E-5,-0.00861365314649045,-0.002));
#996=CARTESIAN_POINT('',(-8.56164218923485E-5,-0.00861365314649045,4.33680868994202E-19));
#997=CARTESIAN_POINT('',(-0.000208073336058771,-0.00647662160415807,-0.002));
#998=CARTESIAN_POINT('',(-0.000208073336058771,-0.00647662160415807,-4.33680868994202E-19));
#999=CARTESIAN_POINT('',(-0.00014442976351112,-0.00480173506235327,-0.002));
#1000=CARTESIAN_POINT('',(-0.00014442976351112,-0.00480173506235327,-4.33680868994202E-19));
#1001=CARTESIAN_POINT('',(-7.3469040058784E-5,-0.00380515440558523,-0.002));
#1002=CARTESIAN_POINT('',(-7.3469040058784E-5,-0.00380515440558523,0.));
#1003=CARTESIAN_POINT('',(-1.0618034866287E-5,-0.0029462683986892,-0.002));
#1004=CARTESIAN_POINT('',(-1.0618034866287E-5,-0.0029462683986892,0.));
#1005=CARTESIAN_POINT('',(3.2331526357261E-5,-0.00235092185106183,-0.002));
#1006=CARTESIAN_POINT('',(3.2331526357261E-5,-0.00235092185106183,0.));
#1007=CARTESIAN_POINT('',(5.36751955821308E-5,-0.00205609306179361,-0.002));
#1008=CARTESIAN_POINT('',(5.36751955821308E-5,-0.00205609306179361,0.));
#1009=CARTESIAN_POINT('',(5.36751955821325E-5,-0.00205609306179361,-0.002));
#1010=CARTESIAN_POINT('',(5.36751955821316E-5,-0.00205609306179361,-0.002));
#1011=CARTESIAN_POINT('',(5.36751955821316E-5,-0.00205609306179361,0.));
#1012=CARTESIAN_POINT('',(0.000420986544273035,-0.00145247037672217,-0.002));
#1013=CARTESIAN_POINT('',(0.000420986544273035,-0.00145247037672217,0.));
#1014=CARTESIAN_POINT('',(0.00113621862432325,-0.000273459705855079,-0.002));
#1015=CARTESIAN_POINT('',(0.00113621862432325,-0.000273459705855079,-4.33680868994202E-19));
#1016=CARTESIAN_POINT('',(0.00234866144662193,0.00170159681274213,-0.002));
#1017=CARTESIAN_POINT('',(0.00234866144662193,0.00170159681274213,4.33680868994202E-19));
#1018=CARTESIAN_POINT('',(0.00383671050069133,0.00387297923233279,-0.002));
#1019=CARTESIAN_POINT('',(0.00383671050069133,0.00387297923233279,-4.33680868994202E-19));
#1020=CARTESIAN_POINT('',(0.00571704882444341,0.00613259112653755,-0.002));
#1021=CARTESIAN_POINT('',(0.00571704882444341,0.00613259112653755,4.33680868994202E-19));
#1022=CARTESIAN_POINT('',(0.00808683945427795,0.00833075137801229,-0.002));
#1023=CARTESIAN_POINT('',(0.00808683945427795,0.00833075137801229,0.));
#1024=CARTESIAN_POINT('',(0.0110349522041226,0.0102732841115748,-0.002));
#1025=CARTESIAN_POINT('',(0.0110349522041226,0.0102732841115748,-4.33680868994202E-19));
#1026=CARTESIAN_POINT('',(0.0141812786171421,0.011708284829059,-0.002));
#1027=CARTESIAN_POINT('',(0.0141812786171421,0.011708284829059,4.33680868994202E-19));
#1028=CARTESIAN_POINT('',(0.0186109229049515,0.0131025266829839,-0.002));
#1029=CARTESIAN_POINT('',(0.0186109229049515,0.0131025266829839,-8.67361737988404E-19));
#1030=CARTESIAN_POINT('',(0.0232993802415471,0.0137489242381484,-0.002));
#1031=CARTESIAN_POINT('',(0.0232993802415471,0.0137489242381484,-4.33680868994202E-19));
#1032=CARTESIAN_POINT('',(0.0281019102592785,0.013595064067751,-0.002));
#1033=CARTESIAN_POINT('',(0.0281019102592785,0.013595064067751,4.33680868994202E-19));
#1034=CARTESIAN_POINT('',(0.0328906634004152,0.0128046605360831,-0.002));
#1035=CARTESIAN_POINT('',(0.0328906634004152,0.0128046605360831,-4.33680868994202E-19));
#1036=CARTESIAN_POINT('',(0.0381298604527956,0.0108821272449001,-0.002));
#1037=CARTESIAN_POINT('',(0.0381298604527956,0.0108821272449001,1.30104260698261E-18));
#1038=CARTESIAN_POINT('',(0.0417089003912424,0.00894752429249677,-0.002));
#1039=CARTESIAN_POINT('',(0.0417089003912424,0.00894752429249677,-4.33680868994202E-19));
#1040=CARTESIAN_POINT('',(0.04338924219067,0.0079835797787335,-0.002));
#1041=CARTESIAN_POINT('',(0.04338924219067,0.0079835797787335,-4.33680868994202E-19));
#1042=MECHANICAL_DESIGN_GEOMETRIC_PRESENTATION_REPRESENTATION('',(#309),
#1043);
#1043=(
GEOMETRIC_REPRESENTATION_CONTEXT(3)
GLOBAL_UNCERTAINTY_ASSIGNED_CONTEXT((#1044))
GLOBAL_UNIT_ASSIGNED_CONTEXT((#1047,#1046,#1045))
REPRESENTATION_CONTEXT('Part 2','TOP_LEVEL_ASSEMBLY_PART')
);
#1044=UNCERTAINTY_MEASURE_WITH_UNIT(LENGTH_MEASURE(2.E-5),#1047,
'DISTANCE_ACCURACY_VALUE','Maximum Tolerance applied to model');
#1045=(
NAMED_UNIT(*)
SI_UNIT($,.STERADIAN.)
SOLID_ANGLE_UNIT()
);
#1046=(
NAMED_UNIT(*)
PLANE_ANGLE_UNIT()
SI_UNIT($,.RADIAN.)
);
#1047=(
LENGTH_UNIT()
NAMED_UNIT(*)
SI_UNIT($,.METRE.)
);
#1048=PRODUCT_DEFINITION_SHAPE('','',#1049);
#1049=PRODUCT_DEFINITION('','',#1051,#1050);
#1050=PRODUCT_DEFINITION_CONTEXT('',#1057,'design');
#1051=PRODUCT_DEFINITION_FORMATION_WITH_SPECIFIED_SOURCE('','',#1053,
 .NOT_KNOWN.);
#1052=PRODUCT_RELATED_PRODUCT_CATEGORY('','',(#1053));
#1053=PRODUCT('Part 2','Part 2','Part 2',(#1055));
#1054=PRODUCT_CATEGORY('','');
#1055=PRODUCT_CONTEXT('',#1057,'mechanical');
#1056=APPLICATION_PROTOCOL_DEFINITION('international standard',
'ap242_managed_model_based_3d_engineering',2020,#1057);
#1057=APPLICATION_CONTEXT('managed model based 3d engineering');
ENDSEC;
END-ISO-10303-21;
